<svg width="390" height="250" viewBox="0 0 390 250" fill="none" xmlns="http://www.w3.org/2000/svg">
<g clip-path="url(#clip0_1404_15637)">
<path d="M117.983 169.672C117.773 168.215 117.049 166.88 115.942 165.908C114.834 164.937 113.416 164.393 111.944 164.374H108.632L107.341 164.705V164.901L79.3906 168.46C77.6727 168.672 76.0588 169.398 74.7591 170.541C73.4594 171.685 72.5349 173.194 72.1058 174.871L52.6157 249.801H57.3177L76.5065 176.013C76.7104 175.217 77.1495 174.5 77.7667 173.958C78.3843 173.415 79.1508 173.071 79.9667 172.97L111.602 168.944C112.038 168.887 112.478 169.003 112.829 169.268C113.179 169.532 113.412 169.923 113.477 170.358L125.579 249.801H130.199L117.983 169.672Z" fill="#B2B6BB"/>
<path d="M54.3544 249.798H49.6689L69.1425 174.867C69.5716 173.19 70.4961 171.681 71.7958 170.538C73.0951 169.394 74.7093 168.669 76.4272 168.457L108.063 164.43C109.679 164.213 111.315 164.641 112.617 165.622C113.919 166.604 114.781 168.059 115.017 169.672L127.232 249.805H122.616L110.513 170.354C110.448 169.919 110.214 169.528 109.863 169.264C109.512 168.999 109.072 168.883 108.636 168.94L77.0034 172.967C76.1875 173.067 75.4206 173.411 74.8034 173.954C74.1862 174.497 73.7468 175.213 73.5431 176.01L54.3544 249.798Z" fill="#DADDDF"/>
<path d="M24.4602 191.904L8.56618 125.729C8.45459 125.263 8.44995 124.778 8.55293 124.309C8.65558 123.841 8.8632 123.403 9.15988 123.027C9.45657 122.65 9.83472 122.346 10.2658 122.137C10.6966 121.928 11.1695 121.819 11.649 121.818H7.34432C6.86485 121.819 6.39201 121.928 5.96121 122.137C5.53009 122.346 5.15194 122.65 4.85525 123.027C4.55856 123.403 4.35095 123.841 4.2483 124.309C4.14532 124.778 4.14995 125.263 4.26154 125.729L20.1556 191.904L71.7086 192.01L24.4602 191.904Z" fill="#B2B6BB"/>
<path d="M58.3743 124.229C58.2047 123.541 57.8097 122.93 57.2521 122.493C56.6945 122.056 56.0067 121.818 55.2981 121.818H11.6557C11.1766 121.819 10.7037 121.928 10.2726 122.137C9.84148 122.346 9.46333 122.65 9.16698 123.027C8.87029 123.403 8.66267 123.841 8.55969 124.309C8.45704 124.778 8.46135 125.263 8.57294 125.729L24.467 191.904L75.0862 192.01L58.3743 124.229Z" fill="#868A91"/>
<path d="M127.033 191.904H58.5066C57.2466 191.904 56.2251 192.925 56.2251 194.184C56.2251 195.443 57.2466 196.464 58.5066 196.464H127.033C128.293 196.464 129.315 195.443 129.315 194.184C129.315 192.925 128.293 191.904 127.033 191.904Z" fill="#868A91"/>
<path d="M76.1225 191.904H17.6589C16.399 191.904 15.3774 192.925 15.3774 194.184C15.3774 195.443 16.399 196.464 17.6589 196.464H76.1225C77.3827 196.464 78.4039 195.443 78.4039 194.184C78.4039 192.925 77.3827 191.904 76.1225 191.904Z" fill="#858990"/>
<path d="M84.9402 193.401C85.0833 193.81 85.1087 194.252 85.0134 194.675C84.918 195.098 84.7054 195.486 84.4005 195.795C84.1896 196.007 83.9379 196.175 83.6611 196.288C83.3843 196.402 83.0872 196.459 82.7879 196.457H17.6588C17.3743 196.458 17.0922 196.406 16.8276 196.301L17.9733 191.897H82.7813C83.2528 191.892 83.7144 192.034 84.1015 192.303C84.4886 192.573 84.7816 192.956 84.9402 193.401Z" fill="#B2B6BB"/>
<path d="M25.5 193.159L29.3477 178.358H29.8775L26.1093 193.159H25.5Z" fill="#858990"/>
<path d="M71.4305 169.672C71.22 168.215 70.4958 166.88 69.3885 165.908C68.2812 164.937 66.8633 164.393 65.3908 164.374H62.0796L60.7882 164.705V164.901L32.8378 168.46C31.1196 168.672 29.5057 169.398 28.206 170.541C26.9067 171.685 25.9819 173.194 25.5531 174.871L6.06299 249.801H10.765L29.967 176.01C30.1716 175.211 30.6133 174.493 31.2339 173.95C31.8544 173.407 32.6246 173.064 33.4438 172.967L65.0796 168.94C65.5147 168.883 65.9551 169 66.3054 169.264C66.656 169.529 66.8888 169.92 66.9537 170.354L79.0564 249.798H83.6623L71.4305 169.672Z" fill="#B2B6BB"/>
<path d="M7.80111 249.798H3.09912L22.5892 174.867C23.0183 173.19 23.9428 171.681 25.2425 170.538C26.5418 169.394 28.1561 168.669 29.874 168.457L61.5064 164.43C63.1223 164.213 64.7584 164.641 66.0604 165.622C67.3624 166.604 68.2246 168.059 68.4601 169.672L80.6753 249.805H76.0627L63.9601 170.354C63.8945 169.919 63.661 169.528 63.3101 169.264C62.9591 168.999 62.5183 168.883 62.0826 168.94L30.4634 172.967C29.6475 173.067 28.8809 173.411 28.2634 173.954C27.6461 174.497 27.2071 175.213 27.0031 176.01L7.80111 249.798Z" fill="#DADDDF"/>
<path d="M234.252 68.9337H234.249V68.937H234.252V68.9337Z" fill="#D6D9DB"/>
<path d="M296.069 45.7877V68.9334H296.639V45.9069L296.069 45.7877Z" fill="#D6D9DB"/>
<path d="M357.861 222.328C357.623 216.444 359.878 210.739 362.765 205.732C364.752 202.265 367.07 199.01 369.219 195.646C369.394 195.368 369.656 195.155 369.964 195.042C370.275 194.928 370.613 194.919 370.924 195.017C371.239 195.115 371.513 195.314 371.702 195.582C371.891 195.851 371.987 196.175 371.974 196.504C371.907 199.617 371.474 202.713 370.682 205.725C369.848 208.725 368.56 211.55 367.275 214.358C365.762 217.669 364.248 220.98 362.739 224.292" fill="#065F46"/>
<path opacity="0.3" d="M357.861 222.328C357.623 216.444 359.878 210.739 362.765 205.732C364.752 202.265 367.07 199.01 369.219 195.646C369.394 195.368 369.656 195.155 369.964 195.042C370.275 194.928 370.613 194.919 370.924 195.017C371.239 195.115 371.513 195.314 371.702 195.582C371.891 195.851 371.987 196.175 371.974 196.504C371.907 199.617 371.474 202.713 370.682 205.725C369.848 208.725 368.56 211.55 367.275 214.358C365.762 217.669 364.248 220.98 362.739 224.292" fill="black"/>
<path d="M344.04 221.636C340.831 212.005 339.464 201.858 340.003 191.722C340.023 191.383 340.156 191.061 340.381 190.809C340.609 190.556 340.914 190.387 341.248 190.331C341.583 190.274 341.927 190.333 342.222 190.497C342.52 190.662 342.752 190.922 342.881 191.235C347.103 201.446 349.629 212.277 350.361 223.301" fill="#065F46"/>
<path opacity="0.3" d="M344.04 221.636C340.831 212.005 339.464 201.858 340.003 191.722C340.023 191.383 340.156 191.061 340.381 190.809C340.609 190.556 340.914 190.387 341.248 190.331C341.583 190.274 341.927 190.333 342.222 190.497C342.52 190.662 342.752 190.922 342.881 191.235C347.103 201.446 349.629 212.277 350.361 223.301" fill="black"/>
<path d="M361.186 221.318L360.914 221.225C363.143 214.669 365.792 208.263 368.841 202.046L369.096 202.172C366.05 208.377 363.407 214.772 361.186 221.318Z" fill="#21252B"/>
<path d="M346.431 220.106C344.245 210.707 342.646 201.18 341.639 191.583L341.917 191.556C342.921 201.138 344.52 210.649 346.705 220.033L346.431 220.106Z" fill="#21252B"/>
<path d="M342.189 224.483C337.175 216.555 334.013 207.599 332.937 198.281C332.904 197.965 332.97 197.645 333.129 197.369C333.288 197.093 333.53 196.875 333.821 196.746C334.113 196.617 334.437 196.585 334.748 196.653C335.06 196.721 335.341 196.887 335.553 197.126C338.169 200.079 340.189 203.646 341.752 207.391C343.851 212.42 345.149 217.785 346.434 223.122" fill="#065F46"/>
<path d="M347.851 223.424C345.102 212.365 345.599 195.474 348.208 184.861C348.288 184.529 348.48 184.233 348.751 184.025C349.023 183.816 349.357 183.707 349.699 183.715C350.04 183.724 350.367 183.849 350.629 184.071C350.891 184.293 351.066 184.598 351.129 184.934C353.261 196.61 353.384 210.649 353.487 223.282" fill="#065F46"/>
<path d="M354.245 226.08C352.149 220.184 351.407 213.893 352.073 207.672C352.735 201.825 353.894 196.023 355.053 190.252L355.609 187.457C355.679 187.118 355.861 186.814 356.129 186.596C356.397 186.377 356.732 186.258 357.076 186.258C357.42 186.258 357.755 186.377 358.023 186.596C358.291 186.814 358.473 187.118 358.543 187.457C360.305 196.729 360.53 210.735 359.702 220.004" fill="#065F46"/>
<path opacity="0.3" d="M354.245 226.08C352.149 220.184 351.407 213.893 352.073 207.672C352.735 201.825 353.894 196.023 355.053 190.252L355.609 187.457C355.679 187.118 355.861 186.814 356.129 186.596C356.397 186.377 356.732 186.258 357.076 186.258C357.42 186.258 357.755 186.377 358.023 186.596C358.291 186.814 358.473 187.118 358.543 187.457C360.305 196.729 360.53 210.735 359.702 220.004" fill="black"/>
<path d="M354.778 222.473C353.944 216.844 356.947 190.911 356.977 190.649L357.258 190.682C357.225 190.944 354.232 216.841 355.06 222.43L354.778 222.473Z" fill="#21252B"/>
<path d="M356.623 219.5C356.623 208.573 359.384 196.533 362.106 188.355C362.212 188.04 362.421 187.77 362.699 187.587C362.974 187.404 363.305 187.318 363.636 187.343C363.967 187.368 364.281 187.503 364.527 187.725C364.772 187.948 364.937 188.246 364.997 188.573C365.795 193.076 366.129 197.648 365.99 202.219C365.742 208.57 364.334 214.944 361.305 220.431" fill="#065F46"/>
<path d="M343.688 226.51C341.52 214.728 335.238 199.801 335.172 199.652L335.437 199.543C335.5 199.692 341.791 214.645 343.97 226.457L343.688 226.51Z" fill="#21252B"/>
<path d="M349.566 190.8L349.281 190.801L349.367 226.095L349.652 226.095L349.566 190.8Z" fill="#21252B"/>
<path d="M359.292 219.182L359.02 219.096C361.364 211.558 362.686 203.738 362.947 195.848H363.232C362.97 203.768 361.643 211.616 359.292 219.182Z" fill="#21252B"/>
<path d="M338.864 221.632L339.278 229.967L340.656 246.43C340.722 247.232 341.089 247.98 341.682 248.526C342.272 249.073 343.05 249.374 343.854 249.374H362.397C363.202 249.374 363.98 249.073 364.573 248.526C365.162 247.98 365.53 247.232 365.596 246.43L366.974 229.967L367.397 221.447L338.864 221.632Z" fill="#84888F"/>
<path opacity="0.2" d="M362.251 221.48L361.831 229.967L360.453 246.43C360.387 247.232 360.02 247.983 359.427 248.526C358.834 249.073 358.056 249.374 357.251 249.374H362.404C363.208 249.374 363.987 249.073 364.579 248.526C365.169 247.98 365.536 247.232 365.602 246.43L366.98 229.967L367.404 221.447L362.251 221.48Z" fill="black"/>
<path d="M338.841 221.106L339.056 225.536H367.185L367.387 221.447L338.841 221.106Z" fill="#61656D"/>
<path d="M339.404 225H366.854C367.166 225 367.47 224.939 367.758 224.82C368.043 224.702 368.305 224.528 368.523 224.309C368.742 224.089 368.917 223.829 369.036 223.543C369.156 223.256 369.215 222.949 369.215 222.639C369.215 222.014 368.967 221.414 368.523 220.972C368.079 220.53 367.48 220.281 366.854 220.281H339.404C338.778 220.281 338.179 220.53 337.735 220.972C337.295 221.414 337.043 222.014 337.043 222.639C337.043 222.949 337.103 223.257 337.222 223.544C337.338 223.831 337.513 224.091 337.732 224.311C337.954 224.53 338.212 224.704 338.5 224.822C338.785 224.94 339.093 225.001 339.404 225Z" fill="#84888F"/>
<path opacity="0.2" d="M366.848 220.281H362.271C362.589 220.269 362.904 220.321 363.202 220.435C363.5 220.548 363.768 220.72 363.997 220.94C364.225 221.16 364.407 221.424 364.533 221.717C364.656 222.009 364.722 222.323 364.722 222.64C364.722 222.958 364.656 223.272 364.533 223.564C364.407 223.857 364.225 224.12 363.997 224.341C363.768 224.561 363.5 224.733 363.202 224.846C362.904 224.959 362.589 225.012 362.271 225H366.848C367.165 225.012 367.48 224.959 367.778 224.846C368.076 224.733 368.344 224.561 368.573 224.341C368.801 224.12 368.983 223.857 369.109 223.564C369.232 223.272 369.298 222.958 369.298 222.64C369.298 222.323 369.232 222.009 369.109 221.717C368.983 221.424 368.801 221.16 368.573 220.94C368.344 220.72 368.076 220.548 367.778 220.435C367.48 220.321 367.165 220.269 366.848 220.281Z" fill="black"/>
<path d="M38.3477 69.5725H73.245V21.2844H38.3477V69.5725Z" fill="white"/>
<path d="M43.0034 65.1023H68.5928V25.7513H43.0034V65.1023Z" fill="#DDDDDD"/>
<path d="M74.2618 21.2844H73.2485V69.5725H74.2618V21.2844Z" fill="#DADDDF"/>
<path d="M49.8047 58.6954H61.7914V39.6788H49.8047V58.6954Z" fill="#B1B5BA"/>
<path d="M55.8046 37.3178C57.3722 37.3178 58.8755 36.695 59.9841 35.5864C61.0924 34.4781 61.7153 32.9748 61.7153 31.4072H49.894C49.894 32.9748 50.5166 34.4781 51.6252 35.5864C52.7334 36.695 54.2371 37.3178 55.8046 37.3178Z" fill="#5B21B6"/>
<path d="M309.417 19.2053H178.47C175.504 19.2053 173.099 21.3095 173.099 23.9052V218.188C173.099 220.784 175.504 222.887 178.47 222.887H309.417C312.384 222.887 314.788 220.784 314.788 218.188V23.9052C314.788 21.3095 312.384 19.2053 309.417 19.2053Z" fill="#10B981"/>
<path opacity="0.2" d="M309.417 19.2053H178.47C175.504 19.2053 173.099 21.3095 173.099 23.9052V218.188C173.099 220.784 175.504 222.887 178.47 222.887H309.417C312.384 222.887 314.788 220.784 314.788 218.188V23.9052C314.788 21.3095 312.384 19.2053 309.417 19.2053Z" fill="white"/>
<path d="M306.662 19.2053H175.715C172.749 19.2053 170.344 21.3095 170.344 23.9052V218.188C170.344 220.784 172.749 222.887 175.715 222.887H306.662C309.629 222.887 312.033 220.784 312.033 218.188V23.9052C312.033 21.3095 309.629 19.2053 306.662 19.2053Z" fill="#A7F3D0"/>
<path opacity="0.6" d="M306.662 19.2053H175.715C172.749 19.2053 170.344 21.3095 170.344 23.9052V218.188C170.344 220.784 172.749 222.887 175.715 222.887H306.662C309.629 222.887 312.033 220.784 312.033 218.188V23.9052C312.033 21.3095 309.629 19.2053 306.662 19.2053Z" fill="#D1FAE5"/>
<path d="M239 159.333C234.278 159.333 229.889 158.486 225.833 156.792C221.778 155.097 218.25 152.75 215.25 149.75C212.25 146.75 209.903 143.222 208.208 139.167C206.514 135.111 205.667 130.722 205.667 126C205.667 121.333 206.514 116.972 208.208 112.917C209.903 108.861 212.25 105.333 215.25 102.333C218.25 99.3333 221.778 96.9722 225.833 95.25C229.889 93.5277 234.278 92.6666 239 92.6666C243.167 92.6666 247.055 93.3333 250.667 94.6666C254.278 96 257.528 97.8333 260.417 100.167L256.833 103.75C254.389 101.806 251.667 100.306 248.667 99.25C245.667 98.1944 242.444 97.6666 239 97.6666C230.944 97.6666 224.208 100.375 218.792 105.792C213.375 111.208 210.667 117.944 210.667 126C210.667 134.056 213.375 140.792 218.792 146.208C224.208 151.625 230.944 154.333 239 154.333C247.055 154.333 253.792 151.625 259.208 146.208C264.625 140.792 267.333 134.056 267.333 126C267.333 124.333 267.208 122.708 266.958 121.125C266.708 119.542 266.333 118 265.833 116.5L269.667 112.667C270.555 114.722 271.222 116.861 271.667 119.083C272.111 121.306 272.333 123.611 272.333 126C272.333 130.722 271.472 135.111 269.75 139.167C268.028 143.222 265.667 146.75 262.667 149.75C259.667 152.75 256.139 155.097 252.083 156.792C248.028 158.486 243.667 159.333 239 159.333ZM234.083 141.167L220.333 127.333L224.083 123.583L234.083 133.583L268.583 99.0833L272.417 102.833L234.083 141.167Z" fill="#047857"/>
<path d="M388.861 249.904H0.284921C0.214391 249.904 0.147175 249.877 0.0975059 249.828C0.047837 249.778 0.0200195 249.709 0.0200195 249.639C0.0200195 249.57 0.047837 249.5 0.0975059 249.45C0.147175 249.401 0.214391 249.374 0.284921 249.374H388.894C388.927 249.374 388.964 249.381 388.997 249.394C389.03 249.407 389.056 249.427 389.083 249.45C389.106 249.477 389.126 249.503 389.139 249.536C389.152 249.57 389.159 249.603 389.159 249.639C389.159 249.675 389.149 249.712 389.133 249.748C389.119 249.781 389.096 249.811 389.066 249.838C389.04 249.861 389.007 249.881 388.97 249.891C388.937 249.904 388.898 249.907 388.861 249.904Z" fill="#ADB1B6"/>
<path d="M90.1289 244.596H99.7514L101.53 228.318L90.162 228.351L90.1289 244.596Z" fill="#F39494"/>
<path opacity="0.2" d="M90.1455 233.093V234.417H97.6819C97.9336 234.417 98.1826 234.47 98.4124 234.573C98.6422 234.676 98.8478 234.825 99.0154 235.013C99.1832 235.199 99.3097 235.421 99.3862 235.662C99.463 235.901 99.4882 236.152 99.4601 236.404L98.8243 242.189H100.006L101 233.099L90.1455 233.093Z" fill="black"/>
<path d="M91.1192 238.411L91.4106 238.156C93.5927 236.265 97.3477 236.288 99.4669 238.242L99.6292 238.407C99.8841 238.629 100.09 238.904 100.234 239.209C100.378 239.517 100.456 239.851 100.464 240.189V241.248C100.463 241.867 100.575 242.48 100.795 243.06L101.788 245.927C102.044 246.613 102.175 247.341 102.176 248.073V248.434C102.176 248.993 101.596 249.427 100.924 249.427H89.404C88.6954 249.427 88.1523 248.977 88.1523 248.434V248.295C88.1527 247.444 88.3169 246.603 88.6358 245.815L89.7881 243.003C90.0553 242.368 90.1967 241.685 90.2053 240.997L90.2384 240.192C90.2868 239.507 90.6033 238.864 91.1192 238.411Z" fill="#25282F"/>
<path d="M127.623 233.195L128.265 242.659L147.02 243.53L140.781 237.238C139.593 236.384 138.864 234.51 138.623 233.086L127.623 233.195Z" fill="#F39494"/>
<path opacity="0.2" d="M134.325 234.768C135.185 234.768 136.029 235.003 136.764 235.45C137.5 235.897 138.098 236.536 138.493 237.301C138.801 237.921 139.244 238.46 139.788 238.887L144.258 243.394L147.02 243.523L140.781 237.232C139.593 236.377 138.864 234.503 138.623 233.079L127.623 233.189L127.735 234.844L134.325 234.768Z" fill="black"/>
<path d="M127.881 238.656C127.881 238.656 132.133 241.305 136.904 239.017C136.809 238.523 136.848 238.013 137.017 237.54C137.186 237.066 137.479 236.646 137.864 236.325C138.656 235.705 140.265 235.5 140.696 236.073C141.126 236.646 141.815 237.599 142.954 238.987C144.537 240.894 146.679 243.096 148.338 243.447C151.374 244.08 157.513 240.977 157.941 247.47C157.941 247.47 151.947 249.725 146.351 249.162C142.714 248.738 139.139 247.884 135.702 246.619V249.225H127.03C127.03 249.225 125.06 241.907 127.881 238.656Z" fill="#25282F"/>
<path d="M126.397 245.083C126.481 246.483 126.694 247.874 127.033 249.238H135.715V246.632C139.152 247.897 142.727 248.748 146.364 249.176C151.947 249.738 157.954 247.487 157.954 247.487C157.924 246.983 157.847 246.487 157.722 246C153.359 248.212 148.313 248.672 143.623 247.282C140.434 246.358 137.868 245.715 135.616 245.073C135.599 245.063 128.146 244.901 126.397 245.083Z" fill="black"/>
<path d="M147.563 243.728C147.563 243.728 143.139 245.053 139.825 242.5C137.378 240.626 136.129 239.52 137.119 237.288C137.302 236.851 137.607 236.473 137.997 236.205C138.388 235.934 138.847 235.785 139.321 235.768C139.321 235.768 142.408 242.993 147.563 243.728Z" fill="black"/>
<path d="M106.44 109.348C111.052 68.5165 102.748 43.5695 99.8174 34.9669L104.453 33.7152L119.811 33.8477L121.754 34.5397C122.149 42.1854 127.622 76.4569 132.894 109.315H106.44V109.348Z" fill="white"/>
<path d="M90.3243 99.6987L135.619 100.427L139.947 233.404H127.364L115.758 124.371C115.723 124.033 115.565 123.72 115.314 123.492C115.063 123.264 114.737 123.135 114.397 123.132C114.05 123.121 113.711 123.243 113.45 123.473C113.19 123.703 113.028 124.025 112.997 124.371L102.069 233.404H89.5098L90.3243 99.6987Z" fill="#5B21B6"/>
<path d="M89.218 230.682H102.817L102.569 233.404H89.1782L89.218 230.682Z" fill="#5B21B6"/>
<path opacity="0.2" d="M97.6852 230.682H102.818L102.569 233.404L97.4634 233.364L97.6852 230.682Z" fill="black"/>
<path d="M138.586 230.656H126.665L126.973 233.404H138.725L138.586 230.656Z" fill="#5B21B6"/>
<path d="M140.148 230.656H138.589L138.754 233.404H140.258L140.148 230.656Z" fill="#5B21B6"/>
<path opacity="0.2" d="M140.148 230.656H138.589L138.754 233.404H140.258L140.148 230.656Z" fill="black"/>
<path opacity="0.2" d="M132.39 103.384L138.589 230.652H139.857L135.715 103.384H132.39Z" fill="black"/>
<path opacity="0.2" d="M97.6816 230.652L106.738 128.95C107.152 125.639 110.102 123.142 113.566 123.142H114.496C114.145 123.137 113.804 123.264 113.54 123.498C113.277 123.731 113.11 124.054 113.072 124.404L102.284 230.652H97.6816Z" fill="black"/>
<path d="M119.556 15.8539C119.556 15.8539 106.113 7.41686 105.583 17.7314L105.387 20.4003L104.464 33.9135C104.458 34.2857 104.586 34.648 104.825 34.9334L114.159 40.2314C114.274 40.3043 114.408 40.34 114.543 40.3344C114.679 40.3284 114.81 40.2808 114.917 40.1983L119.129 35.2877C119.322 35.1238 119.471 34.9145 119.563 34.6788C119.655 34.443 119.687 34.1877 119.656 33.9367L118.798 25.9268C118.979 25.1496 119.068 24.3539 119.063 23.5559C119.205 19.5096 119.556 15.8539 119.556 15.8539Z" fill="#F39494"/>
<path d="M120.215 16.4801C122.984 16.4801 125.229 14.2357 125.229 11.4669C125.229 8.69832 122.984 6.45361 120.215 6.45361C117.447 6.45361 115.202 8.69832 115.202 11.4669C115.202 14.2357 117.447 16.4801 120.215 16.4801Z" fill="black"/>
<path d="M121.073 8.56949C121.073 8.56949 125.851 28.6059 115.57 29.9569C106.672 31.1456 105.682 17.2715 105.682 17.2715L106.113 8.27478L121.073 8.56949Z" fill="#F39494"/>
<path d="M117.576 0.20166C114.805 0.20166 112.374 1.36059 111.016 3.10232C110.673 3.52218 110.225 3.84371 109.717 4.03444C109.21 4.22516 108.661 4.27847 108.126 4.18841C107.801 4.17582 107.476 4.18477 107.152 4.2149C98.2416 4.83742 99.5066 18.1553 107.563 17.0692C109.262 16.8407 110.785 15.6387 111.642 13.7215C111.921 13.0884 112.418 12.5768 113.043 12.2801C113.668 11.9834 114.379 11.9215 115.046 12.1056C115.871 12.3291 116.722 12.4407 117.576 12.4368C121.838 12.4368 125.291 9.69835 125.291 6.31755C125.291 2.93676 121.854 0.20166 117.576 0.20166Z" fill="black"/>
<path opacity="0.2" d="M105.334 21.0695C105.334 21.0695 106.189 21.1357 106.659 20.7748L105.208 23.0132L105.334 21.0695Z" fill="black"/>
<path d="M105.881 15.7218C105.881 15.7218 105.219 13.8444 103.232 14.6987C100.99 15.692 101.45 20.7649 105.242 21.0596C107.229 21.2252 106.825 20.0662 106.493 18.5232L105.881 15.7218Z" fill="#F39494"/>
<path opacity="0.2" d="M103.146 16.0165C103.298 15.8976 103.472 15.8102 103.659 15.7599C103.846 15.7092 104.04 15.6963 104.232 15.7218C104.416 15.7688 104.588 15.8549 104.736 15.9745C104.884 16.0937 105.004 16.2437 105.089 16.4139C105.333 16.8337 105.459 17.3122 105.453 17.798L105.483 18.2251C105.484 18.2556 105.479 18.2857 105.468 18.3142C105.457 18.3423 105.44 18.3682 105.419 18.3897C105.397 18.4115 105.372 18.4284 105.344 18.44C105.315 18.4516 105.285 18.4572 105.255 18.4569C105.224 18.4579 105.194 18.4523 105.165 18.441C105.137 18.4298 105.111 18.4129 105.089 18.391C105.067 18.3692 105.05 18.3433 105.039 18.3149C105.028 18.2864 105.022 18.2559 105.023 18.2251L104.99 17.798C104.975 17.3973 104.875 17.0043 104.695 16.6457C104.57 16.4202 104.372 16.2447 104.132 16.149C103.875 16.1284 103.618 16.1986 103.407 16.3476C103.353 16.3794 103.29 16.3904 103.229 16.3781C103.168 16.3662 103.113 16.3314 103.076 16.2814C103.013 16.2483 103.046 16.1159 103.146 16.0165Z" fill="black"/>
<path opacity="0.15" d="M119.457 31.5725L119.126 28.3441C118.268 29.2315 115.814 30.5196 112.996 29.8573C111.592 29.5103 110.334 28.7265 109.404 27.6189C109.387 27.5967 109.365 27.5782 109.341 27.5646C109.316 27.5507 109.29 27.5421 109.262 27.5391C109.234 27.5361 109.206 27.5384 109.179 27.5464C109.152 27.5547 109.127 27.5679 109.106 27.5858C109.084 27.6023 109.065 27.6235 109.051 27.6477C109.038 27.6719 109.029 27.6984 109.026 27.7258C109.023 27.7533 109.026 27.7815 109.034 27.808C109.042 27.8345 109.055 27.859 109.073 27.8805C110.282 29.2898 111.974 30.196 113.818 30.4202C114.632 30.9805 115.551 31.3715 116.52 31.5696C117.489 31.7672 118.488 31.7686 119.457 31.5725Z" fill="black"/>
<path opacity="0.2" d="M116.328 25.8705C116.328 25.9037 116.295 25.9037 116.328 25.8705L115.076 25.9699C115.002 25.9719 114.93 25.9457 114.875 25.8964C114.82 25.8474 114.785 25.7788 114.778 25.705C114.775 25.6679 114.778 25.6305 114.79 25.5951C114.802 25.5596 114.821 25.5272 114.846 25.4994C114.871 25.4715 114.901 25.4494 114.935 25.4341C114.969 25.4189 115.006 25.4106 115.043 25.4103L116.262 25.3109C116.332 25.3027 116.402 25.3222 116.458 25.3656C116.514 25.409 116.55 25.4729 116.56 25.5427C116.556 25.7381 116.46 25.8705 116.328 25.8705Z" fill="black"/>
<path opacity="0.2" d="M116.788 24.6851C114.546 25.0162 113.526 23.7943 113.146 23.2016C113.112 23.1404 113.105 23.0685 113.123 23.0013C113.142 22.9344 113.185 22.8768 113.245 22.8407C113.307 22.8076 113.378 22.7987 113.446 22.8165C113.514 22.8344 113.572 22.8775 113.609 22.9367C113.94 23.5328 115.059 24.8175 117.761 23.9301C117.825 23.9162 117.891 23.9258 117.947 23.9576C118.004 23.9894 118.046 24.041 118.067 24.1023C118.087 24.1636 118.084 24.2304 118.059 24.2897C118.033 24.3493 117.986 24.397 117.927 24.4235C117.556 24.546 117.175 24.6338 116.788 24.6851Z" fill="black"/>
<path d="M113.692 18.755C114.147 18.755 114.516 18.3858 114.516 17.9305C114.516 17.4752 114.147 17.106 113.692 17.106C113.236 17.106 112.867 17.4752 112.867 17.9305C112.867 18.3858 113.236 18.755 113.692 18.755Z" fill="black"/>
<path d="M114.053 17.8311C114.145 17.8311 114.218 17.757 114.218 17.6656C114.218 17.5738 114.145 17.5 114.053 17.5C113.961 17.5 113.887 17.5738 113.887 17.6656C113.887 17.757 113.961 17.8311 114.053 17.8311Z" fill="white"/>
<path d="M120.215 18.788C120.67 18.788 121.04 18.4188 121.04 17.9635C121.04 17.5082 120.67 17.139 120.215 17.139C119.759 17.139 119.391 17.5082 119.391 17.9635C119.391 18.4188 119.759 18.788 120.215 18.788Z" fill="black"/>
<path d="M120.579 17.8638C120.671 17.8638 120.745 17.7897 120.745 17.6983C120.745 17.6069 120.671 17.5327 120.579 17.5327C120.488 17.5327 120.414 17.6069 120.414 17.6983C120.414 17.7897 120.488 17.8638 120.579 17.8638Z" fill="white"/>
<path opacity="0.2" d="M117.381 22.6752L116.295 22.7414C116.229 22.7457 116.164 22.7238 116.114 22.6801C116.065 22.6367 116.034 22.5755 116.03 22.5096C116.026 22.4437 116.047 22.3788 116.091 22.3291C116.134 22.2795 116.196 22.249 116.262 22.2447L117.348 22.1818C117.413 22.1775 117.477 22.1606 117.535 22.1318C117.594 22.103 117.646 22.0629 117.69 22.0139C117.733 21.9649 117.766 21.9079 117.787 21.846C117.808 21.7841 117.817 21.7189 117.813 21.6536C117.809 21.5884 117.792 21.5245 117.763 21.4659C117.734 21.4073 117.694 21.3546 117.645 21.3116C117.596 21.2682 117.539 21.2351 117.477 21.2139C117.415 21.193 117.35 21.1841 117.285 21.1884C117.221 21.1854 117.16 21.1609 117.112 21.1189C117.064 21.0768 117.031 21.0195 117.02 20.9566C116.987 20.8242 117.119 20.7281 117.252 20.695C117.508 20.6781 117.761 20.7612 117.957 20.9265C118.153 21.092 118.278 21.3271 118.305 21.5824C118.323 21.849 118.237 22.1122 118.065 22.3162C117.892 22.5202 117.647 22.649 117.381 22.6752Z" fill="black"/>
<path d="M123.536 16.1755H110.927C110.576 16.1755 110.239 16.3149 109.991 16.5633C109.742 16.8116 109.603 17.1487 109.603 17.5V18.5431C109.603 19.4977 109.982 20.413 110.657 21.0881C111.332 21.763 112.247 22.1424 113.202 22.1424C114.157 22.1424 115.072 21.763 115.747 21.0881C116.422 20.413 116.801 19.4977 116.801 18.5431V17.5166C116.8 17.2216 116.697 16.9365 116.51 16.7086H117.904C117.728 16.9401 117.638 17.2259 117.649 17.5166V18.5431C117.649 19.4977 118.028 20.413 118.703 21.0881C119.378 21.763 120.294 22.1424 121.248 22.1424C122.203 22.1424 123.118 21.763 123.793 21.0881C124.468 20.413 124.848 19.4977 124.848 18.5431V17.5166C124.85 17.3421 124.817 17.1692 124.753 17.0077C124.688 16.8457 124.592 16.6984 124.47 16.5739C124.348 16.4494 124.203 16.35 124.043 16.2815C123.883 16.2133 123.711 16.1772 123.536 16.1755ZM116.298 17.5V18.5431C116.3 18.9457 116.223 19.3447 116.071 19.7176C115.92 20.0908 115.696 20.4302 115.413 20.7166C115.13 21.0027 114.793 21.2308 114.422 21.3871C114.051 21.5434 113.653 21.6249 113.25 21.6275C112.847 21.6298 112.448 21.5527 112.075 21.401C111.702 21.249 111.363 21.0252 111.076 20.7421C110.79 20.4593 110.562 20.1226 110.406 19.7514C110.25 19.3802 110.168 18.9822 110.165 18.5795V17.5497C110.167 17.3358 110.253 17.1312 110.404 16.9802C110.555 16.8292 110.76 16.7434 110.973 16.7418H115.526C115.728 16.7424 115.922 16.8222 116.066 16.9639C116.21 17.1053 116.294 17.2977 116.298 17.5ZM124.344 18.5265C124.36 18.9375 124.293 19.3477 124.147 19.7325C124.001 20.1169 123.779 20.4686 123.495 20.7659C123.211 21.063 122.869 21.3 122.491 21.463C122.113 21.6255 121.707 21.7106 121.295 21.7133C120.884 21.7156 120.476 21.6355 120.096 21.4772C119.716 21.3189 119.372 21.0858 119.084 20.7921C118.797 20.498 118.57 20.1494 118.42 19.7663C118.27 19.3835 118.198 18.9742 118.209 18.563V17.5497C118.21 17.3358 118.296 17.1312 118.447 16.9802C118.598 16.8292 118.803 16.7434 119.016 16.7418H123.573C123.787 16.7434 123.991 16.8292 124.142 16.9802C124.293 17.1312 124.379 17.3358 124.381 17.5497L124.344 18.5265Z" fill="#5B21B6" stroke="#5B21B6" stroke-miterlimit="10"/>
<path d="M131.519 103.384H103.539C103.377 103.384 103.278 102.609 103.278 101.837C103.267 101.202 103.355 100.568 103.539 99.96H131.519C131.722 100.564 131.812 101.201 131.784 101.837C131.788 102.609 131.685 103.384 131.519 103.384Z" fill="black"/>
<path d="M89.5465 118.278L90.9836 83.9503L87.2485 77.7715L77.7783 54.6357L78.6757 47.8476C78.583 43.1655 82.7121 38.8476 86.9902 37.8576L104.265 33.7748C106.666 41.3211 112.795 71.6523 111.593 106.42C111.315 114.725 104.881 121.321 97.1227 121.321H92.3479C90.7783 121.344 89.5167 119.96 89.5465 118.278Z" fill="#21252B"/>
<path d="M186.526 64.1023L187.126 64.6784C187.236 64.7877 187.368 64.8731 187.514 64.9291C187.659 64.9851 187.814 65.0106 187.969 65.0036C188.125 64.9967 188.277 64.9579 188.417 64.8894C188.557 64.8208 188.681 64.7241 188.781 64.6056C188.944 64.4225 189.064 64.2059 189.134 63.9712C189.203 63.7367 189.221 63.4897 189.185 63.2476C189.149 63.0056 189.06 62.7741 188.926 62.5702C188.79 62.3659 188.612 62.1937 188.404 62.0659L188.361 62.0427C187.834 61.7357 187.241 61.5596 186.632 61.5294L178.914 60.9467L179.533 64.738L186.526 64.1023Z" fill="#F39494"/>
<path d="M178.97 63.7742L183.857 65.3735L181.97 72.953L177.109 74.1119L173.304 73.4696C173.075 73.4312 172.841 73.4414 172.615 73.4994L161.357 76.4795L159.516 67.208L169.205 64.4798L175.725 61.8769C176.489 61.3325 177.396 61.0249 178.334 60.9931L181.904 60.8669C182.295 60.8547 182.671 60.7073 182.966 60.4497L183.735 59.7875C183.766 59.7636 183.802 59.7467 183.841 59.7384C183.88 59.7302 183.92 59.7308 183.958 59.7401C183.997 59.749 184.032 59.7669 184.063 59.7918C184.094 59.8166 184.118 59.848 184.135 59.8835L184.291 60.1653C184.413 60.3722 184.472 60.611 184.459 60.851C184.447 61.0914 184.364 61.3226 184.221 61.5159L182.629 63.5027L181.185 63.4765L178.053 64.5689" fill="#F39494"/>
<path opacity="0.15" d="M181.083 64.4662C182.901 64.7695 184.765 64.6447 186.526 64.102C186.857 65.0324 188.139 65.1781 188.616 64.7907L186.927 63.4364L183.135 61.9364C182.935 61.8669 182.717 61.8678 182.517 61.9387C182.318 62.0099 182.148 62.1467 182.036 62.3271L181.083 64.4662Z" fill="black"/>
<path opacity="0.15" d="M176.417 66.2249C176.39 66.2143 176.368 66.1944 176.355 66.1689C176.341 66.1434 176.337 66.1136 176.344 66.0858C176.353 66.0553 176.373 66.0295 176.4 66.0133C176.427 65.9974 176.459 65.9924 176.49 65.9997C176.566 66.0196 178.371 66.4666 179.877 64.2646C179.886 64.2504 179.897 64.2385 179.91 64.2289C179.923 64.2196 179.939 64.213 179.955 64.2093C179.97 64.206 179.987 64.206 180.003 64.209C180.019 64.2123 180.034 64.2189 180.048 64.2282C180.061 64.2375 180.072 64.2494 180.081 64.2633C180.089 64.2772 180.095 64.2924 180.097 64.3087C180.1 64.3249 180.099 64.3411 180.095 64.357C180.09 64.3729 180.083 64.3875 180.073 64.4004C178.463 66.7447 176.45 66.2348 176.43 66.2282L176.417 66.2249Z" stroke="black" stroke-miterlimit="10"/>
<path d="M168.497 76.7348L143.762 86.3374C142.32 86.7818 140.766 86.6914 139.386 86.0834C138.005 85.4752 136.89 84.3897 136.245 83.0262L122.55 46.9103L135.301 41.5195L147.96 69.1453L170.109 63.9897L168.497 76.7348Z" fill="#21252B"/>
<path opacity="0.3" d="M144.424 84.341C144.308 84.3775 144.192 84.4073 144.093 84.4371C141.059 85.1887 138.079 82.9768 137.748 79.8775L136.374 67.0596L136.669 83.788C136.669 84.1192 138.139 85.4205 138.417 85.5496C139.193 86.0688 140.075 86.4082 141 86.543C141.923 86.6775 142.866 86.604 143.758 86.3278L168.493 76.7251L168.728 74.8642L144.424 84.341Z" fill="black"/>
<path d="M136.093 52.8474L137.338 120.145C137.308 120.477 136.506 121.311 136.205 121.311H135.662C133.599 121.311 131.838 119.655 131.503 117.457C126.894 84.9103 121.149 41.5129 120.814 34.2017L129.232 36.5527C133.248 37.6719 135.987 40.9334 136.013 44.6288C136.036 48.1123 136.066 51.9368 136.093 52.8474Z" fill="#21252B"/>
<path d="M123.523 99.6851L96.3374 94.9632L103.808 60.9136L131.039 65.7149L123.523 99.6851Z" fill="#61656D"/>
<path d="M114.066 65.9901C114.479 65.9901 114.815 65.655 114.815 65.2418C114.815 64.8282 114.479 64.4934 114.066 64.4934C113.653 64.4934 113.318 64.8282 113.318 65.2418C113.318 65.655 113.653 65.9901 114.066 65.9901Z" fill="#AEB2B7"/>
<path d="M121.801 67.3569C122.214 67.3569 122.549 67.0221 122.549 66.6086C122.549 66.1953 122.214 65.8602 121.801 65.8602C121.388 65.8602 121.053 66.1953 121.053 66.6086C121.053 67.0221 121.388 67.3569 121.801 67.3569Z" fill="#AEB2B7"/>
<path d="M96.205 85.046L99.5163 80.8043L101.566 80.4235L107.526 79.0228C107.747 78.9771 107.942 78.849 108.072 78.6645C108.202 78.4798 108.257 78.2529 108.225 78.0294L108.202 77.7215C108.205 77.4897 108.117 77.2655 107.957 77.0983C107.796 76.9307 107.576 76.8337 107.344 76.8274L102.255 77.1983L108.679 76.7579C108.905 76.7198 109.108 76.5943 109.243 76.4089C109.379 76.2231 109.436 75.992 109.404 75.7645L109.387 75.5195C109.391 75.2877 109.303 75.0639 109.144 74.8963C108.984 74.7284 108.765 74.6301 108.533 74.6221L101.986 75.0559L109.705 74.5294C109.931 74.4903 110.133 74.3648 110.269 74.1794C110.404 73.994 110.462 73.7635 110.43 73.536V73.4135C110.434 73.1814 110.346 72.9569 110.185 72.789C110.025 72.6211 109.805 72.5231 109.573 72.5162L101.741 73.0526C101.741 73.0526 104.722 71.7877 104.765 71.7778L108.93 70.8109C109.134 70.745 109.308 70.6092 109.422 70.4274C109.535 70.2456 109.58 70.0294 109.549 69.8175C109.553 69.6966 109.531 69.5765 109.485 69.4645C109.439 69.3523 109.371 69.2513 109.283 69.1678C109.196 69.0841 109.092 69.0198 108.978 68.9788C108.864 68.9377 108.743 68.9212 108.622 68.9301L100.811 70.3606C100.743 70.3748 100.677 70.3996 100.616 70.4334L91.5361 74.9963L96.205 85.046Z" fill="#F39494"/>
<path opacity="0.3" d="M108.689 74.599L101.093 75.1189" stroke="black" stroke-width="1.03" stroke-linecap="round" stroke-linejoin="round"/>
<path opacity="0.3" d="M107.592 76.8043L101.718 77.2282" stroke="black" stroke-width="1.03" stroke-linecap="round" stroke-linejoin="round"/>
<g opacity="0.3">
<path opacity="0.3" d="M87.51 77.5695C87.3643 77.6821 87.2749 77.6258 87.3114 77.447L90.5696 60.7318C90.5849 60.651 90.6296 60.5788 90.6951 60.5291C90.7607 60.4798 90.8422 60.4563 90.924 60.4636C90.9826 60.4676 91.0372 60.4947 91.0759 60.5384C91.115 60.5824 91.1352 60.6397 91.1326 60.6987L89.861 89.053C89.8514 89.1523 89.8183 89.2483 89.765 89.3328C89.7114 89.4175 89.6389 89.4881 89.5531 89.5397L88.5597 90.0729C88.4008 90.1589 88.2816 90.0728 88.2981 89.8973L89.5796 76.2682C89.5961 76.0861 89.4935 76.0298 89.3478 76.1424L87.51 77.5695Z" fill="black"/>
</g>
<path d="M79.0661 45.202L71.7813 82.702C70.0959 94.8643 79.5694 97.6027 84.4568 94.7384C84.5962 94.6567 84.728 94.5623 84.8509 94.457L97.5727 83.8875L93.2184 73.1159L87.2581 77.7716L92.8509 49.0828" fill="#21252B"/>
<path d="M181.768 73.5961L183.179 72.9338C183.483 72.7994 183.744 72.5855 183.937 72.3146C184.091 72.0597 184.185 71.7739 184.214 71.4775C184.244 71.1815 184.207 70.8825 184.106 70.6027L180.463 68.7318C180.28 68.6365 180.072 68.5984 179.866 68.6226C179.661 68.6467 179.468 68.7322 179.311 68.8676C179.229 68.9361 179.164 69.0229 179.121 69.1206C179.078 69.2186 179.058 69.3252 179.063 69.4322C179.068 69.5388 179.098 69.6431 179.15 69.7365C179.203 69.8298 179.276 69.91 179.364 69.9702L181.328 71.3279C181.528 71.4682 181.697 71.6487 181.824 71.8577L181.768 73.5961Z" fill="#F39494"/>
<path opacity="0.3" d="M183.794 69.748L183.48 70.344L180.168 68.6056L180.486 68.1089L183.794 69.748Z" fill="black"/>
<path opacity="0.3" d="M181.639 65.887L185.712 67.5228H186.619L182.272 64.9467L181.639 65.887Z" fill="black"/>
<path d="M180.358 65.4007C181.623 65.8676 183.878 66.7417 185.361 67.3212C185.755 67.5043 186.065 67.8308 186.228 68.2345C186.39 68.6378 186.392 69.0878 186.235 69.4934C186.18 69.6835 186.084 69.8596 185.955 70.0093C185.825 70.159 185.665 70.2788 185.484 70.3603C185.304 70.4417 185.108 70.4831 184.91 70.4815C184.712 70.4798 184.517 70.4355 184.338 70.351L179.53 67.957C179.204 67.7696 178.962 67.4639 178.854 67.1037C178.746 66.7434 178.781 66.3557 178.95 66.0199C179.063 65.7573 179.271 65.5474 179.532 65.4325C179.793 65.3176 180.088 65.3063 180.358 65.4007Z" fill="#F39494"/>
<path d="M184 66.6785C184.642 67.1189 185.378 67.4033 186.149 67.5096C186.323 67.5205 186.498 67.4953 186.662 67.4354C186.827 67.3755 186.976 67.2821 187.103 67.1616C187.229 67.0407 187.329 66.8953 187.396 66.7341C187.463 66.5728 187.496 66.3993 187.493 66.2248V66.1619C187.553 65.0195 186.858 64.0162 185.871 63.8242L185.54 63.7612C184.969 63.648 184.418 63.448 183.907 63.1685L183.265 62.8142C182.988 62.6662 182.664 62.6334 182.363 62.7225C182.061 62.8119 181.807 63.0159 181.656 63.291C181.45 63.6122 181.373 63.999 181.439 64.3745C181.504 64.7503 181.708 65.0877 182.01 65.3209L184 66.6785Z" fill="#F39494"/>
</g>
<defs>
<clipPath id="clip0_1404_15637">
<rect width="389.404" height="250" fill="white"/>
</clipPath>
</defs>
</svg>
