<svg width="63" height="63" viewBox="0 0 63 63" fill="none" xmlns="http://www.w3.org/2000/svg">
<g filter="url(#filter0_ddd_888_18087)">
<path fill-rule="evenodd" clip-rule="evenodd" d="M12.0885 46.6414C8.58882 43.1675 8 33.3907 8 27.5102C8 21.6297 8.58882 11.8528 12.0885 8.37892C15.4284 5.06371 25.2508 4.24487 31.0009 4.24487C36.7509 4.24487 46.5733 5.06371 49.9132 8.37892C53.4129 11.8528 54.0017 21.6297 54.0017 27.5102C54.0017 33.3907 53.4129 43.1675 49.9132 46.6414C46.5733 49.9566 36.7509 50.7755 31.0009 50.7755C25.2508 50.7755 15.4284 49.9566 12.0885 46.6414Z" fill="url(#paint0_linear_888_18087)"/>
</g>
<mask id="mask0_888_18087" style="mask-type:alpha" maskUnits="userSpaceOnUse" x="8" y="4" width="47" height="47">
<path fill-rule="evenodd" clip-rule="evenodd" d="M12.0885 46.6414C8.58882 43.1675 8 33.3907 8 27.5102C8 21.6297 8.58882 11.8528 12.0885 8.37892C15.4284 5.06371 25.2508 4.24487 31.0009 4.24487C36.7509 4.24487 46.5733 5.06371 49.9132 8.37892C53.4129 11.8528 54.0017 21.6297 54.0017 27.5102C54.0017 33.3907 53.4129 43.1675 49.9132 46.6414C46.5733 49.9566 36.7509 50.7755 31.0009 50.7755C25.2508 50.7755 15.4284 49.9566 12.0885 46.6414Z" fill="white"/>
</mask>
<g mask="url(#mask0_888_18087)">
<path fill-rule="evenodd" clip-rule="evenodd" d="M31.7812 39.9904C31.6118 39.9965 31.4424 39.9992 31.2729 39.9987L31.1166 39.9966L31.0908 39.8963C31.0701 39.8171 31.0483 39.7383 31.0253 39.6598C30.9734 39.4826 30.9154 39.3071 30.8518 39.1336C31.6417 39.1636 32.4346 39.1163 33.2148 38.9906C33.9725 38.8685 34.718 38.6726 35.4368 38.4065C36.1367 38.1474 36.8112 37.8213 37.4485 37.4354C38.0761 37.0552 38.6674 36.6165 39.2126 36.1277C39.348 36.0063 39.4806 35.8817 39.6101 35.7542C39.7141 35.6519 39.7913 35.5312 39.826 35.3891C39.8936 35.1126 39.7901 34.8159 39.5645 34.6393C39.3397 34.4634 39.0231 34.4325 38.7676 34.5605C38.6544 34.6172 38.5649 34.7061 38.4759 34.7944L38.4759 34.7944C38.4502 34.8199 38.4246 34.8454 38.3984 34.87C38.2661 34.9946 38.1304 35.1157 37.9916 35.2332C37.4306 35.708 36.8183 36.1233 36.1677 36.4689C35.5028 36.822 34.7989 37.1021 34.0717 37.3021C33.3215 37.5083 32.548 37.6292 31.7701 37.6631C31.3757 37.6803 30.9804 37.6754 30.5866 37.6482C30.4899 37.6416 30.3932 37.6333 30.2967 37.6236C30.2485 37.6188 30.2003 37.6136 30.1522 37.6082L30.1047 37.6028L30.0499 37.517C29.9491 37.3593 29.843 37.2049 29.7318 37.0542C29.6226 36.9062 29.5086 36.7618 29.3899 36.6212C30.3249 36.8129 31.2886 36.8631 32.2389 36.7709C33.1729 36.6804 34.092 36.4511 34.9571 36.0913C35.061 36.0481 35.1641 36.0031 35.2663 35.9562C35.3501 35.9178 35.426 35.8752 35.4862 35.8042C35.5904 35.6813 35.6276 35.5109 35.5834 35.3566C35.5383 35.199 35.4138 35.0718 35.2558 35.0224C35.177 34.9978 35.0923 34.9929 35.0112 35.0087C34.9391 35.0227 34.8718 35.0547 34.8053 35.0864C34.7826 35.0972 34.76 35.108 34.7374 35.1179C33.8863 35.4933 32.9726 35.7259 32.0443 35.8054C31.0924 35.8869 30.1255 35.809 29.2002 35.5728C28.2967 35.3422 27.4352 34.9607 26.6575 34.4511C25.8958 33.952 25.2186 33.3327 24.6572 32.6195C24.0947 31.905 23.6504 31.1005 23.3499 30.2452C23.0387 29.3596 22.8829 28.4232 22.8857 27.4859C22.8885 26.5554 23.0469 25.6265 23.3592 24.7484C23.6654 23.8871 24.1168 23.0777 24.6885 22.3608C25.2535 21.6523 25.9343 21.0348 26.6976 20.5402C27.4753 20.036 28.337 19.661 29.2387 19.436C30.1648 19.2049 31.1301 19.133 32.0811 19.2183C33.0135 19.3018 33.9304 19.5404 34.7829 19.9232C35.6127 20.2957 36.3796 20.8025 37.0462 21.4168C37.1279 21.4921 37.206 21.5709 37.284 21.6497L37.2841 21.6497L37.2841 21.6497C37.3644 21.7308 37.4447 21.8118 37.5288 21.8889C37.6751 22.023 37.837 22.1405 38.0105 22.238C38.3463 22.4268 38.7243 22.5393 39.1096 22.5663C39.9099 22.6227 40.7045 22.3027 41.2383 21.7107C41.696 21.2032 41.9325 20.5238 41.8911 19.8454C41.8708 19.5126 41.7848 19.1844 41.6383 18.8841C41.4696 18.5387 41.2204 18.2642 40.9486 17.995C40.3013 17.3539 39.5891 16.7775 38.8255 16.2768C38.0596 15.7747 37.2421 15.3497 36.3896 15.0104C35.5263 14.6668 34.6268 14.4119 33.7106 14.2503C32.769 14.0842 31.8094 14.017 30.8535 14.0482C29.8996 14.0793 28.949 14.2086 28.0225 14.4356C27.1133 14.6584 26.2283 14.9746 25.3849 15.3774C24.5554 15.7737 23.7669 16.2538 23.0353 16.8072C22.3111 17.3552 21.6424 17.9749 21.0426 18.6541C20.4372 19.3398 19.9022 20.0856 19.4483 20.8775C18.991 21.6751 18.6168 22.5191 18.3334 23.3921C18.0439 24.2838 17.8498 25.2059 17.7544 26.1376C17.6575 27.0837 17.661 28.0398 17.7654 28.9851C17.8681 29.9142 18.0687 30.8322 18.3639 31.7201C18.653 32.5897 19.0328 33.4295 19.4946 34.2228C19.9479 35.0014 20.4805 35.735 21.0811 36.4091C21.6851 37.0873 22.3581 37.7062 23.0871 38.2512C23.73 38.7317 24.4049 39.1658 25.1214 39.5316C25.8274 39.892 26.5667 40.1879 27.3276 40.4144C28.1089 40.6471 28.9121 40.8063 29.7232 40.8943C30.6185 40.9916 31.5249 41.0064 32.4227 40.9347C32.5361 40.9257 32.6494 40.9152 32.7626 40.9033L32.8045 40.8992C32.8862 40.8914 32.9686 40.8835 33.0446 40.8515C33.1872 40.7914 33.2955 40.665 33.3319 40.516C33.4116 40.1899 33.1292 39.8759 32.7928 39.9144C32.4568 39.9532 32.1193 39.9784 31.7812 39.9904ZM39.9354 33.1596C40.1854 32.9805 40.5312 32.9749 40.787 33.1456C41.0772 33.3391 41.1927 33.7198 41.0567 34.039C40.9369 34.3205 40.6453 34.5026 40.3368 34.4886C40.0247 34.4745 39.7481 34.2601 39.6593 33.9641C39.5705 33.6685 39.6826 33.3407 39.9354 33.1596ZM38.8668 37.5192C38.1021 38.0845 37.2738 38.5653 36.3998 38.9459C35.962 39.1366 35.513 39.3022 35.0559 39.4418C34.826 39.5121 34.5941 39.5759 34.3605 39.6331C34.3412 39.6378 34.3218 39.6422 34.3024 39.6465C34.2198 39.6652 34.137 39.6839 34.0641 39.7281C33.987 39.7747 33.9237 39.8423 33.8823 39.9217C33.7937 40.0917 33.8151 40.3035 33.9365 40.4527C34.0745 40.6222 34.2814 40.6593 34.4866 40.6109C34.9496 40.5015 35.407 40.3684 35.856 40.2117C36.7578 39.8971 37.6248 39.4868 38.4388 38.9907C38.6418 38.8669 38.8416 38.7379 39.0379 38.6039C39.1376 38.5357 39.2365 38.4663 39.3344 38.3956L39.3698 38.3703C39.445 38.317 39.5208 38.2632 39.5734 38.1866C39.6795 38.0322 39.6866 37.8253 39.5911 37.6642C39.4955 37.503 39.3112 37.4082 39.1229 37.4233C39.0304 37.4307 38.9411 37.4643 38.8668 37.5192ZM40.1124 36.4679C40.2478 36.3379 40.3802 36.2049 40.5095 36.069C40.7301 35.8372 41.126 35.8779 41.2935 36.1501C41.3625 36.2624 41.383 36.4003 41.3498 36.5275C41.3141 36.6643 41.2144 36.7631 41.1163 36.8603L41.1162 36.8604C41.1012 36.8752 41.0863 36.89 41.0716 36.9049C40.9417 37.0368 40.8091 37.1661 40.6739 37.2927C40.5519 37.4069 40.4011 37.4722 40.2307 37.4462C39.9383 37.4018 39.748 37.1035 39.8312 36.8237C39.8698 36.6936 39.9645 36.6057 40.0605 36.5166C40.0779 36.5005 40.0953 36.4844 40.1124 36.4679ZM37.4137 33.2467C37.1049 33.5678 36.7781 33.8649 36.419 34.1304C36.3204 34.2033 36.2204 34.2742 36.1204 34.3451C36.0371 34.404 35.9709 34.4782 35.9327 34.5731C35.8552 34.7661 35.9117 34.9922 36.0715 35.1272C36.2596 35.286 36.5141 35.2706 36.7081 35.1338C36.8962 35.0011 37.0828 34.8661 37.2631 34.723C37.4326 34.5885 37.5961 34.4466 37.7533 34.2981C37.8448 34.2119 37.9342 34.1236 38.0224 34.0341L38.0498 34.0064L38.0498 34.0064C38.1234 33.9326 38.1967 33.8589 38.2352 33.7601C38.3191 33.544 38.2343 33.2926 38.0362 33.1693C37.8391 33.0466 37.5741 33.0799 37.4137 33.2467ZM29.4559 24.9149C29.9985 24.5329 30.6558 24.3263 31.3217 24.3263C31.487 24.3263 31.6524 24.3387 31.8158 24.3636C32.4642 24.4623 33.0736 24.7612 33.5475 25.2095C34.0197 25.6562 34.3484 26.2428 34.4778 26.8765C34.611 27.5286 34.5335 28.2176 34.2555 28.8236C33.9887 29.4051 33.5434 29.9008 32.9917 30.2324C32.4181 30.5771 31.741 30.7348 31.072 30.6841C30.4135 30.6342 29.7792 30.3802 29.2704 29.964C28.7707 29.5552 28.4013 28.9987 28.224 28.3817C28.0399 27.7408 28.0648 27.0455 28.2957 26.4195C28.518 25.8165 28.9273 25.2872 29.4559 24.9149Z" fill="white"/>
</g>
<defs>
<filter id="filter0_ddd_888_18087" x="0" y="0.244873" width="62.0017" height="62.5306" filterUnits="userSpaceOnUse" color-interpolation-filters="sRGB">
<feFlood flood-opacity="0" result="BackgroundImageFix"/>
<feColorMatrix in="SourceAlpha" type="matrix" values="0 0 0 0 0 0 0 0 0 0 0 0 0 0 0 0 0 0 127 0" result="hardAlpha"/>
<feOffset dy="4"/>
<feGaussianBlur stdDeviation="4"/>
<feColorMatrix type="matrix" values="0 0 0 0 0 0 0 0 0 0 0 0 0 0 0 0 0 0 0.1 0"/>
<feBlend mode="normal" in2="BackgroundImageFix" result="effect1_dropShadow_888_18087"/>
<feColorMatrix in="SourceAlpha" type="matrix" values="0 0 0 0 0 0 0 0 0 0 0 0 0 0 0 0 0 0 127 0" result="hardAlpha"/>
<feOffset dy="2"/>
<feGaussianBlur stdDeviation="2"/>
<feColorMatrix type="matrix" values="0 0 0 0 0 0 0 0 0 0 0 0 0 0 0 0 0 0 0.3 0"/>
<feBlend mode="normal" in2="effect1_dropShadow_888_18087" result="effect2_dropShadow_888_18087"/>
<feColorMatrix in="SourceAlpha" type="matrix" values="0 0 0 0 0 0 0 0 0 0 0 0 0 0 0 0 0 0 127 0" result="hardAlpha"/>
<feOffset/>
<feGaussianBlur stdDeviation="0.5"/>
<feColorMatrix type="matrix" values="0 0 0 0 0 0 0 0 0 0 0 0 0 0 0 0 0 0 0.3 0"/>
<feBlend mode="normal" in2="effect2_dropShadow_888_18087" result="effect3_dropShadow_888_18087"/>
<feBlend mode="normal" in="SourceGraphic" in2="effect3_dropShadow_888_18087" result="shape"/>
</filter>
<linearGradient id="paint0_linear_888_18087" x1="30.6706" y1="-18.8534" x2="-15.5268" y2="27.1491" gradientUnits="userSpaceOnUse">
<stop stop-color="#6E00FE"/>
<stop offset="1" stop-color="#3A008C"/>
</linearGradient>
</defs>
</svg>
