<svg width="30" height="30" viewBox="0 0 30 30" fill="none" xmlns="http://www.w3.org/2000/svg">
<path fill-rule="evenodd" clip-rule="evenodd" d="M2.66633 27.3346C0.384 25.0949 0 18.7914 0 15C0 11.2086 0.384 4.90512 2.66633 2.66537C4.8444 0.527933 11.2501 0 15 0C18.7499 0 25.1556 0.527933 27.3337 2.66537C29.616 4.90512 30 11.2086 30 15C30 18.7914 29.616 25.0949 27.3337 27.3346C25.1556 29.4721 18.7499 30 15 30C11.2501 30 4.8444 29.4721 2.66633 27.3346Z" fill="#FF6C36"/>
<mask id="mask0" mask-type="alpha" maskUnits="userSpaceOnUse" x="0" y="0" width="30" height="30">
<path fill-rule="evenodd" clip-rule="evenodd" d="M2.66633 27.3346C0.384 25.0949 0 18.7914 0 15C0 11.2086 0.384 4.90512 2.66633 2.66537C4.8444 0.527933 11.2501 0 15 0C18.7499 0 25.1556 0.527933 27.3337 2.66537C29.616 4.90512 30 11.2086 30 15C30 18.7914 29.616 25.0949 27.3337 27.3346C25.1556 29.4721 18.7499 30 15 30C11.2501 30 4.8444 29.4721 2.66633 27.3346Z" fill="white"/>
</mask>
<g mask="url(#mask0)">
<path fill-rule="evenodd" clip-rule="evenodd" d="M15.9897 24.6035C15.8625 24.608 15.7353 24.6101 15.6081 24.6097L15.4908 24.6082L15.4714 24.532C15.456 24.4719 15.4396 24.4121 15.4223 24.3524C15.3833 24.2179 15.3398 24.0847 15.2921 23.953C15.885 23.9758 16.4801 23.9399 17.0658 23.8444C17.6345 23.7517 18.194 23.603 18.7336 23.401C19.2589 23.2043 19.7652 22.9568 20.2435 22.6638C20.7146 22.3752 21.1584 22.0422 21.5676 21.6711C21.6693 21.5789 21.7688 21.4843 21.8661 21.3876C21.9441 21.3099 22.002 21.2183 22.0281 21.1104C22.0788 20.9005 22.0011 20.6752 21.8318 20.5411C21.6631 20.4076 21.4255 20.3842 21.2336 20.4814C21.1487 20.5244 21.0815 20.5919 21.0147 20.6589L21.0147 20.6589L21.0146 20.659C20.9954 20.6783 20.9762 20.6976 20.9566 20.7163C20.8572 20.8109 20.7554 20.9028 20.6512 20.992C20.2301 21.3525 19.7705 21.6677 19.2822 21.9301C18.7831 22.1982 18.2547 22.4108 17.7089 22.5626C17.1458 22.7192 16.5652 22.8109 15.9813 22.8367C15.6853 22.8497 15.3886 22.846 15.093 22.8254C15.0204 22.8203 14.9479 22.8141 14.8754 22.8067C14.8392 22.803 14.8031 22.7991 14.7669 22.795L14.7313 22.7909L14.6902 22.7257C14.6145 22.606 14.5349 22.4888 14.4514 22.3744C14.3695 22.2621 14.2839 22.1525 14.1947 22.0457C14.8966 22.1913 15.6199 22.2293 16.3332 22.1594C17.0343 22.0907 17.7241 21.9166 18.3735 21.6435C18.4515 21.6107 18.5289 21.5765 18.6056 21.5409C18.6685 21.5117 18.7255 21.4794 18.7706 21.4255C18.8488 21.3322 18.8768 21.2029 18.8436 21.0857C18.8098 20.966 18.7163 20.8695 18.5977 20.832C18.5386 20.8133 18.475 20.8096 18.4141 20.8216C18.36 20.8322 18.3095 20.8565 18.2596 20.8806L18.2595 20.8806C18.2425 20.8888 18.2256 20.8969 18.2086 20.9045C17.5698 21.1895 16.8839 21.366 16.1871 21.4264C15.4727 21.4883 14.7469 21.4291 14.0524 21.2498C13.3742 21.0748 12.7276 20.7851 12.1438 20.3983C11.5721 20.0194 11.0638 19.5492 10.6424 19.0078C10.2202 18.4655 9.88672 17.8547 9.66114 17.2054C9.4276 16.5331 9.31058 15.8222 9.3127 15.1107C9.31479 14.4043 9.43369 13.6991 9.66809 13.0325C9.89799 12.3786 10.2368 11.7642 10.6659 11.22C11.09 10.6821 11.601 10.2133 12.1739 9.83781C12.7577 9.45509 13.4044 9.17039 14.0813 8.99957C14.7764 8.82415 15.501 8.7696 16.2148 8.8343C16.9146 8.89773 17.6028 9.07885 18.2428 9.36942C18.8656 9.65227 19.4412 10.037 19.9416 10.5033C20.0029 10.5605 20.0615 10.6203 20.1201 10.6801C20.1804 10.7416 20.2407 10.8031 20.3038 10.8617C20.4136 10.9635 20.5351 11.0527 20.6653 11.1268C20.9174 11.2701 21.2012 11.3554 21.4904 11.376C22.0911 11.4187 22.6875 11.1759 23.0882 10.7265C23.4317 10.3412 23.6092 9.82542 23.5782 9.31038C23.5629 9.05776 23.4984 8.80857 23.3884 8.58064C23.2618 8.31844 23.0747 8.10999 22.8707 7.90568C22.3849 7.419 21.8503 6.98137 21.2771 6.60129C20.7023 6.2201 20.0886 5.89751 19.4487 5.63992C18.8007 5.37905 18.1256 5.18551 17.4379 5.06289C16.7311 4.9368 16.0109 4.88575 15.2934 4.90944C14.5773 4.93305 13.8638 5.03121 13.1684 5.20355C12.486 5.37269 11.8216 5.6127 11.1886 5.91852C10.566 6.21932 9.97417 6.58382 9.42503 7.00398C8.88139 7.41993 8.37947 7.8904 7.92931 8.40604C7.47491 8.92659 7.0733 9.49272 6.7326 10.0939C6.38938 10.6994 6.1085 11.3401 5.89578 12.0029C5.67849 12.6798 5.53274 13.3798 5.46116 14.0871C5.38844 14.8053 5.39107 15.5312 5.46945 16.2488C5.5465 16.9541 5.69708 17.651 5.91865 18.3251C6.13565 18.9852 6.42076 19.6227 6.76737 20.2249C7.10758 20.816 7.50737 21.3729 7.95816 21.8847C8.41156 22.3995 8.91668 22.8694 9.46392 23.2831C9.94643 23.6479 10.453 23.9774 10.9908 24.2551C11.5208 24.5287 12.0757 24.7534 12.6468 24.9254C13.2333 25.102 13.8361 25.2228 14.4449 25.2897C15.1169 25.3635 15.7973 25.3747 16.4712 25.3203C16.5563 25.3135 16.6414 25.3055 16.7263 25.2965L16.7578 25.2934C16.8191 25.2874 16.8809 25.2815 16.938 25.2572C17.045 25.2115 17.1263 25.1155 17.1536 25.0024C17.2135 24.7549 17.0015 24.5165 16.749 24.5458C16.4968 24.5752 16.2434 24.5943 15.9897 24.6035ZM22.1106 19.4178C22.2982 19.2819 22.5578 19.2776 22.7498 19.4072C22.9677 19.5541 23.0543 19.8431 22.9523 20.0855C22.8623 20.2991 22.6435 20.4374 22.4119 20.4268C22.1776 20.416 21.97 20.2533 21.9033 20.0286C21.8367 19.8041 21.9208 19.5553 22.1106 19.4178ZM21.3085 22.7274C20.7345 23.1566 20.1128 23.5216 19.4568 23.8105C19.1281 23.9553 18.7911 24.081 18.4481 24.187C18.2755 24.2403 18.1014 24.2888 17.9261 24.3322C17.9116 24.3358 17.8971 24.3391 17.8825 24.3424C17.8205 24.3566 17.7583 24.3708 17.7036 24.4043C17.6457 24.4397 17.5982 24.491 17.5672 24.5513C17.5007 24.6804 17.5168 24.8412 17.6078 24.9544C17.7114 25.0831 17.8667 25.1113 18.0207 25.0745C18.3683 24.9915 18.7116 24.8904 19.0486 24.7715C19.7255 24.5326 20.3763 24.2212 20.9873 23.8445C21.1397 23.7506 21.2896 23.6526 21.4369 23.5509C21.5118 23.4992 21.586 23.4464 21.6595 23.3927L21.6861 23.3736C21.7425 23.3331 21.7994 23.2923 21.8389 23.2341C21.9185 23.1169 21.9239 22.9598 21.8522 22.8375C21.7805 22.7152 21.6421 22.6432 21.5007 22.6546C21.4313 22.6603 21.3643 22.6858 21.3085 22.7274ZM22.2435 21.9294C22.3451 21.8307 22.4445 21.7297 22.5416 21.6266C22.7072 21.4506 23.0044 21.4815 23.13 21.6881C23.1819 21.7734 23.1973 21.878 23.1723 21.9746C23.1455 22.0785 23.0707 22.1535 22.997 22.2273C22.9858 22.2386 22.9745 22.2498 22.9635 22.2611C22.866 22.3613 22.7665 22.4595 22.665 22.5556C22.5734 22.6422 22.4602 22.6918 22.3323 22.6721C22.1128 22.6383 21.97 22.4119 22.0324 22.1995C22.0614 22.1008 22.1325 22.034 22.2046 21.9664L22.2239 21.9482L22.2435 21.9294ZM20.2178 19.4839C19.986 19.7277 19.7407 19.9533 19.4711 20.1548C19.3971 20.2101 19.3221 20.264 19.247 20.3178C19.1845 20.3625 19.1348 20.4189 19.1062 20.4909C19.048 20.6374 19.0904 20.8091 19.2103 20.9115C19.3515 21.0321 19.5425 21.0204 19.6881 20.9166C19.8293 20.8158 19.9694 20.7133 20.1047 20.6047C20.232 20.5026 20.3547 20.3948 20.4727 20.2822C20.5413 20.2167 20.6085 20.1497 20.6746 20.0817L20.6952 20.0607C20.7505 20.0047 20.8055 19.9487 20.8344 19.8737C20.8974 19.7097 20.8337 19.5188 20.6851 19.4252C20.5371 19.3321 20.3381 19.3573 20.2178 19.4839ZM14.2448 13.159C14.652 12.8689 15.1454 12.7121 15.6452 12.7121C15.7694 12.7121 15.8935 12.7215 16.0161 12.7404C16.5028 12.8153 16.9603 13.0422 17.3159 13.3825C17.6704 13.7217 17.9171 14.167 18.0142 14.6481C18.1142 15.1431 18.0561 15.6661 17.8474 16.1262C17.6471 16.5677 17.3129 16.944 16.8987 17.1957C16.4682 17.4574 15.96 17.5771 15.4578 17.5386C14.9636 17.5007 14.4874 17.3079 14.1056 16.9919C13.7305 16.6816 13.4532 16.2592 13.3201 15.7907C13.1819 15.3042 13.2006 14.7764 13.3739 14.3011C13.5408 13.8434 13.848 13.4415 14.2448 13.159Z" fill="white"/>
</g>
</svg>
