<svg width="205" height="139" viewBox="0 0 205 139" fill="none" xmlns="http://www.w3.org/2000/svg">
<path d="M152.929 122.561C169.771 123.747 190.817 117.084 200.111 102.436C203.957 96.3734 206.51 88.5929 203.845 81.8838C201.817 76.8059 193.241 71.0618 191.389 65.9121C189.51 60.6878 189.777 54.8029 190.742 49.3115C193.511 33.5151 178.105 8.88993 145.593 6.25911C120.937 4.26589 109.782 23.4313 88.7953 26.0477C67.6195 28.6872 42.7875 12.8362 27.6402 26.0477C8.82813 42.4415 17.6569 58.8497 19.9459 66.5268C22.8869 76.3895 8.50932 87.6451 11.4733 102.163C18.1049 134.618 66.284 112.736 80.4031 111.354C94.7463 109.961 108.98 114.045 123.033 117.319C137.086 120.594 151.975 123.064 165.712 118.566L152.929 122.561Z" fill="#F9F4FF"/>
<path d="M101.258 138.079C157.181 138.079 202.516 135.919 202.516 133.254C202.516 130.589 157.181 128.429 101.258 128.429C45.3347 128.429 0 130.589 0 133.254C0 135.919 45.3347 138.079 101.258 138.079Z" fill="#DAC0FF"/>
<path d="M13.1207 50.5982L12.8163 50.6327C12.1327 44.6157 13.9651 38.771 18.6121 32.2514L18.8649 32.4295C14.2724 38.883 12.463 44.6616 13.1207 50.5982Z" fill="#4E0EA6"/>
<path d="M11.1802 54.6278L10.893 54.7197C7.37186 43.5042 13.4118 34.4227 19.7965 27.0156L20.0291 27.2167C13.6962 34.5577 7.70502 43.5588 11.1802 54.6278Z" fill="#4E0EA6"/>
<path d="M159.751 6.86518C152.688 3.25211 146.706 2.26986 140.93 3.80355L140.85 3.51634C146.706 1.97404 152.757 2.94193 159.891 6.60095L159.751 6.86518Z" fill="#4E0EA6"/>
<path d="M165.061 7.25289C156.884 2.06018 147.116 -2.56961 136.662 2.46514L136.535 2.20091C147.125 -2.89703 156.984 1.76723 165.23 7.00589L165.061 7.25289Z" fill="#4E0EA6"/>
<path d="M75.2976 38.0156H74.8496C74.8496 37.7897 74.8611 37.5628 74.8841 37.335L75.3292 37.3666C75.3149 37.5733 75.3034 37.7945 75.2976 38.0156Z" fill="#4E0EA6"/>
<path d="M105.83 34.2705C105.709 33.8339 105.565 33.4089 105.407 32.9752L105.827 32.8201C105.99 33.2538 106.137 33.7018 106.26 34.1499L105.83 34.2705ZM75.4833 35.9937L75.041 35.9248C75.1128 35.4653 75.2076 35.0029 75.3282 34.552L75.7619 34.6611C75.647 35.1091 75.5551 35.5572 75.4833 36.0024V35.9937ZM104.873 31.7258C104.678 31.318 104.463 30.9159 104.233 30.5282L104.618 30.2984C104.856 30.6976 105.077 31.1141 105.278 31.5334L104.873 31.7258ZM76.1525 33.3658L75.7274 33.2193C75.8797 32.7828 76.0549 32.3433 76.2444 31.9211L76.6522 32.1021C76.4627 32.5157 76.2932 32.9321 76.1468 33.3658H76.1525ZM103.495 29.3908C103.233 29.0232 102.949 28.6642 102.653 28.3224L102.992 28.0352C103.296 28.3885 103.589 28.7561 103.854 29.1352L103.495 29.3908ZM77.264 30.8872L76.8734 30.6689C77.0974 30.2639 77.3473 29.8619 77.6058 29.477L77.9763 29.7297C77.7178 30.1031 77.4765 30.4937 77.2582 30.8872H77.264ZM101.723 27.3287C101.398 27.0156 101.059 26.7083 100.709 26.424L100.996 26.0765C101.355 26.3637 101.705 26.6853 102.039 27.0099L101.723 27.3287ZM78.7891 28.6384L78.4416 28.3511C78.7288 27.9893 79.0476 27.6389 79.3692 27.3057L79.6909 27.6159C79.3807 27.9462 79.0677 28.288 78.7833 28.6384H78.7891ZM99.6202 25.6083C99.2469 25.3527 98.8591 25.1114 98.4714 24.8903L98.6897 24.4997C99.0946 24.7295 99.4939 24.9765 99.8787 25.2378L99.6202 25.6083ZM80.6789 26.6882L80.3917 26.3493C80.7449 26.0449 81.1126 25.7519 81.4888 25.4877L81.7531 25.8524C81.3739 26.1081 81.0178 26.3924 80.6732 26.6882H80.6789ZM97.2508 24.2757C96.8401 24.0919 96.415 23.9195 95.9871 23.7702L96.1364 23.348C96.5758 23.5031 97.0124 23.6783 97.4346 23.8678L97.2508 24.2757ZM82.8904 25.0942L82.6606 24.7122C83.0598 24.4738 83.4734 24.2498 83.8927 24.0488L84.0852 24.4509C83.6659 24.6462 83.2638 24.8645 82.876 25.0942H82.8904ZM94.6946 23.371C94.2581 23.2618 93.81 23.1671 93.3649 23.0838L93.4367 22.6415C93.8933 22.7161 94.3557 22.8109 94.8066 22.9287L94.6946 23.371ZM85.3345 23.9081L85.1766 23.4887C85.6102 23.325 86.0583 23.1757 86.5063 23.0522L86.627 23.483C86.1789 23.6094 85.7424 23.7415 85.3202 23.9138L85.3345 23.9081ZM92.0121 22.9373C91.5641 22.9028 91.1045 22.8885 90.6536 22.8971V22.449C91.1189 22.449 91.587 22.449 92.0523 22.4892L92.0121 22.9373ZM87.951 23.1699L87.8677 22.7305C88.3244 22.6443 88.7925 22.5783 89.252 22.5295L89.298 22.9746C88.8356 23.0263 88.3818 23.0924 87.9366 23.1671L87.951 23.1699Z" fill="#4E0EA6"/>
<path d="M106.689 36.2034L106.247 36.2666C106.215 36.0454 106.181 35.8271 106.141 35.6117L106.58 35.5284C106.62 35.7525 106.666 35.9765 106.689 36.2034Z" fill="#4E0EA6"/>
<path d="M76.6659 38.1593L75.0403 38.9348L73.3516 38.3058L75.1811 42.1601L76.6659 38.1593Z" fill="#4E0EA6"/>
<path d="M61.3996 60.3145C61.3335 59.2949 61.75 58.0973 62.0228 58.215C62.2957 58.3328 62.04 59.2892 62.2296 59.5764C62.4795 59.9526 62.6949 60.3059 62.5168 61.1934L61.3996 60.3145Z" fill="#FCB47E"/>
<path d="M52.2093 131.487L51.3965 124.916H56.213L56.4255 131.487H52.2093Z" fill="#FCB47E"/>
<path d="M56.3342 128.647C54.5161 129.124 51.8107 128.256 51.8107 128.256L51.6211 126.697L56.2853 127.09L56.3342 128.647Z" fill="#FCA377"/>
<path d="M29.2383 131.487L29.6835 124.916H34.4999L33.4516 131.487H29.2383Z" fill="#FCB47E"/>
<path d="M34.2719 126.321L33.9445 128.394C32.3929 128.5 30.8469 128.119 29.5215 127.306L29.6565 125.295L34.2719 126.321Z" fill="#FCA377"/>
<path d="M62.4567 127.369C62.4567 127.369 59.2399 86.9673 50.5519 67.3252L42.4785 67.7302C42.4785 67.7302 43.1678 96.1637 49.225 127.369C49.225 127.369 56.8044 129.167 62.4567 127.369Z" fill="#4E0EA6"/>
<path d="M39.5738 127.369C39.5738 127.369 31.6268 128.653 27.0918 125.568C27.0918 125.568 29.5072 81.7632 36.8971 67.3999H45.5908C45.5908 67.3999 45.3065 91.0141 39.5738 127.369Z" fill="#4E0EA6"/>
<path d="M37.0923 46.6061C37.3049 45.8421 37.7069 44.8656 37.7069 44.8656C37.5962 45.519 37.5539 46.1822 37.5806 46.8445C39.4675 47.7061 43.408 48.8377 49.5284 47.3413C49.4509 46.7123 49.4164 46.115 49.4164 46.115C49.5281 46.5068 49.6662 46.8907 49.83 47.2638C50.0511 47.2092 50.2694 47.1518 50.4934 47.0886C50.3593 46.3857 50.272 45.6748 50.2321 44.9604C50.4294 45.6456 50.703 46.3065 51.0477 46.9306C51.4182 46.8157 51.7973 46.6951 52.1966 46.5659C52.1966 46.5659 50.9759 44.7048 50.1861 39.8596C49.5255 35.876 47.4835 33.9948 44.3788 34.0781C37.9942 34.2475 36.291 46.0977 36.291 46.0977C36.5444 46.2879 36.8123 46.4579 37.0923 46.6061Z" fill="#4E0EA6"/>
<path d="M59.165 60.6592C59.165 60.6592 56.606 49.1393 46.4331 48.5448C30.7745 47.6286 25.9609 57.8129 25.9609 57.8129L59.165 60.6592Z" fill="white"/>
<path d="M42.9509 36.999C44.6741 36.011 47.7157 35.9679 48.4078 38.3058C49.0483 40.4656 48.9449 46.9766 46.0556 46.8531C43.037 46.7239 42.0835 44.4262 41.8135 43.0246C41.7188 42.5191 41.2248 37.987 42.9509 36.999Z" fill="#FCB47E"/>
<path d="M41.8898 42.9097C41.8898 42.9097 40.5399 43.3233 40.2901 42.1113C40.0632 41.017 41.3614 40.5891 41.7807 41.0687L41.8898 42.9097Z" fill="#FCB47E"/>
<path d="M60.5803 74.5312C62.5161 70.7401 64.0268 61.8941 64.0268 61.8941C64.2508 61.5437 65.19 60.0387 65.2503 58.8899C65.2732 58.3787 65.0176 58.0771 64.6759 58.2437C64.5524 57.8272 64.3054 57.7526 63.9751 57.9938C63.7884 57.6319 63.5615 57.6463 63.3346 57.8244C62.8406 56.9943 61.8555 59.6194 61.8612 59.9497C61.8612 60.1709 61.9302 60.9779 61.9646 61.2163C62.0077 61.5293 56.1602 71.4983 56.1602 71.4983L60.5803 74.5312Z" fill="#FCB47E"/>
<path d="M28.6726 126.275L28.4141 126.257C28.4428 125.821 31.3838 82.2916 38.8569 68.1466L39.0867 68.2672C31.6394 82.3663 28.7013 125.841 28.6726 126.275Z" fill="white"/>
<path d="M35.0078 60.3863L32.2793 76.0592C39.4308 78.2075 47.5013 76.2775 54.1071 71.8976L51.3729 56.44L46.2864 48.6854C46.2864 48.6854 43.8078 51.5144 41.0736 48.6194L33.9566 51.6063L35.0078 60.3863Z" fill="white"/>
<path d="M61.042 63.784L59.606 60.2025C59.606 60.2025 55.9901 52.8557 53.0175 50.9573L51.1133 63.8127L61.042 63.784Z" fill="white"/>
<path d="M44.156 92.1514L43.9004 92.1284C44.314 87.7399 44.6557 83.4461 44.92 79.3678L45.1727 79.385C44.9171 83.4634 44.5667 87.76 44.156 92.1514Z" fill="#47393D"/>
<path d="M51.1538 127.458C51.0992 127.199 45.737 101.483 44.2148 88.524L44.4733 88.4924C45.9955 101.44 51.3663 127.148 51.4065 127.406L51.1538 127.458Z" fill="white"/>
<path d="M51.4813 56.4229L51.2324 56.4668L53.9607 71.9238L54.2096 71.8798L51.4813 56.4229Z" fill="#4E0EA6"/>
<path d="M40.7891 40.8274C40.9515 40.7499 41.1357 40.7304 41.3107 40.7722C41.4858 40.814 41.6413 40.9146 41.7512 41.0572C41.8258 40.4824 41.9856 39.922 42.2251 39.3942L42.4405 40.5431C43.3284 40.6927 44.2258 40.78 45.1259 40.8044C45.4677 40.8044 46.4356 40.8044 46.4356 40.8044L46.6567 38.9002L47.0703 40.7671C47.3575 40.7441 47.5758 40.7154 47.7998 40.6838L47.9635 39.5666L48.2737 40.6206C48.5781 40.5689 48.7907 40.5201 48.8941 40.5C48.9572 39.6987 48.9802 37.5418 47.5557 36.2895C45.9186 34.8535 42.452 35.6433 41.6507 37.3608C41.1588 38.4556 40.867 39.6297 40.7891 40.8274Z" fill="#4E0EA6"/>
<path d="M44.0237 49.9492C45.4598 49.9492 46.3214 48.6969 46.3214 48.6969L45.9624 44.5468L42.0161 42.2032L41.0195 48.6309C41.0195 48.6309 42.243 49.9492 44.0237 49.9492Z" fill="#FCB47E"/>
<path d="M45.9245 47.0857V46.833C44.1295 46.7554 42.9806 45.3826 42.3316 44.2481L42.1133 44.3745C42.8055 45.5693 44.0146 47.0053 45.9245 47.0857Z" fill="#4E0EA6"/>
<path d="M51.1083 134.578L63.283 134.624C63.3833 134.624 63.4826 134.604 63.5748 134.565C63.667 134.525 63.75 134.467 63.8188 134.394C63.8875 134.321 63.9404 134.235 63.9743 134.14C64.0081 134.046 64.0221 133.945 64.0154 133.845V133.828C64.0154 133.736 63.9953 133.641 63.9838 133.541C63.9575 133.235 63.8591 132.94 63.6966 132.679C63.1221 131.91 62.002 131.556 60.0088 130.758C59.0357 130.357 58.1045 129.862 57.2286 129.279C57.155 129.23 57.0666 129.208 56.9786 129.217C56.8907 129.226 56.8085 129.265 56.7461 129.328C54.3278 131.671 52.8516 131.166 52.415 130.189C52.079 129.448 51.5994 129.6 51.4673 129.816C51.0594 130.494 50.8297 132.481 50.7349 133.478C50.7349 133.584 50.7148 133.685 50.709 133.765C50.6947 133.952 50.6832 134.052 50.6832 134.052C50.6683 134.116 50.6681 134.182 50.6826 134.245C50.6972 134.309 50.7261 134.368 50.7671 134.419C50.8081 134.47 50.8602 134.51 50.9193 134.538C50.9784 134.565 51.043 134.579 51.1083 134.578Z" fill="#4E0EA6"/>
<path d="M59.3224 132.047C59.5676 131.932 59.7707 131.743 59.9035 131.507C60.0363 131.27 60.0922 130.999 60.0634 130.729L59.8537 130.761C59.8788 130.986 59.8321 131.213 59.7202 131.41C59.6082 131.608 59.4368 131.764 59.2305 131.858L59.3224 132.047Z" fill="white"/>
<path d="M60.3925 132.409C60.6203 132.293 60.809 132.112 60.9351 131.89C61.0612 131.667 61.1192 131.412 61.1019 131.157L60.8922 131.18C60.9034 131.394 60.8524 131.607 60.7454 131.792C60.6383 131.978 60.4798 132.128 60.2891 132.226L60.3925 132.409Z" fill="white"/>
<path d="M53.5322 131.855C54.0742 131.84 54.6071 131.713 55.0975 131.482L54.9998 131.295C54.9826 131.295 53.1301 132.226 52.1852 131.039L52.0215 131.171C52.2033 131.394 52.4344 131.572 52.6965 131.691C52.9586 131.809 53.2447 131.866 53.5322 131.855Z" fill="white"/>
<path d="M52.2 133.626L52.1992 133.839L59.2932 133.865L59.294 133.652L52.2 133.626Z" fill="white"/>
<path d="M60.2059 133.656L60.2051 133.869L61.8824 133.875L61.8831 133.662L60.2059 133.656Z" fill="white"/>
<path d="M28.3102 134.578L40.4821 134.624C40.5825 134.624 40.6819 134.604 40.7743 134.565C40.8666 134.525 40.9498 134.467 41.0188 134.394C41.0877 134.321 41.1409 134.235 41.1751 134.14C41.2092 134.046 41.2236 133.946 41.2173 133.845V133.828C41.2173 133.736 41.2058 133.641 41.1829 133.541C41.1593 133.235 41.0606 132.939 40.8956 132.679C40.3212 131.91 39.2011 131.556 37.2079 130.758C36.2351 130.357 35.304 129.861 34.4277 129.279C34.3539 129.23 34.2657 129.209 34.1778 129.218C34.09 129.227 34.0078 129.265 33.9452 129.328C31.5298 131.671 30.0536 131.166 29.6141 130.189C29.2781 129.448 28.8013 129.6 28.6663 129.816C28.2585 130.494 28.0287 132.481 27.934 133.478C27.934 133.584 27.9139 133.685 27.9081 133.765L27.8851 134.052C27.8696 134.116 27.869 134.182 27.8833 134.246C27.8976 134.31 27.9265 134.369 27.9676 134.42C28.0087 134.471 28.0611 134.512 28.1205 134.539C28.1799 134.566 28.2448 134.58 28.3102 134.578Z" fill="#4E0EA6"/>
<path d="M36.5235 132.047C36.7688 131.932 36.9718 131.743 37.1041 131.507C37.2365 131.27 37.2916 130.998 37.2617 130.729L37.052 130.761C37.0778 130.986 37.0317 131.213 36.9202 131.41C36.8088 131.607 36.6377 131.764 36.4316 131.858L36.5235 132.047Z" fill="white"/>
<path d="M37.5909 132.409C37.8204 132.294 38.011 132.114 38.1391 131.891C38.2673 131.669 38.3273 131.413 38.3118 131.157L38.1021 131.18C38.1134 131.394 38.0621 131.607 37.9545 131.793C37.8469 131.979 37.6876 132.129 37.4961 132.226L37.5909 132.409Z" fill="white"/>
<path d="M30.7197 131.855C31.2618 131.841 31.795 131.714 32.285 131.482L32.1902 131.295C32.1701 131.295 30.3205 132.226 29.3756 131.039L29.209 131.171C29.3908 131.394 29.6219 131.572 29.884 131.691C30.1461 131.809 30.4322 131.866 30.7197 131.855Z" fill="white"/>
<path d="M29.4012 133.626L29.4004 133.839L36.4944 133.865L36.4952 133.652L29.4012 133.626Z" fill="white"/>
<path d="M37.407 133.656L37.4062 133.869L39.0835 133.875L39.0843 133.662L37.407 133.656Z" fill="white"/>
<path d="M35.5428 93.6478L76.2229 87.2144C76.6261 87.1494 76.9872 86.9274 77.2272 86.597C77.4673 86.2665 77.5667 85.8545 77.5038 85.4509L73.3508 59.2921C73.2865 58.8883 73.0648 58.5265 72.7343 58.2859C72.4038 58.0452 71.9913 57.9454 71.5873 58.0082L30.9302 64.4302C30.527 64.4952 30.1659 64.7171 29.9259 65.0476C29.6858 65.3781 29.5864 65.7901 29.6493 66.1937L33.7822 92.364C33.8465 92.7672 34.0678 93.1285 34.3977 93.3691C34.7276 93.6096 35.1393 93.7098 35.5428 93.6478Z" fill="#A066F2"/>
<path d="M43.2238 80.7951L35.9016 81.9509C35.6744 81.9868 35.5193 82.2 35.5552 82.4272L35.7777 83.8372C35.8136 84.0644 36.0268 84.2195 36.254 84.1836L43.5762 83.0278C43.8034 82.992 43.9585 82.7787 43.9226 82.5515L43.7 81.1416C43.6642 80.9144 43.4509 80.7593 43.2238 80.7951Z" fill="white"/>
<path d="M52.9015 79.2674L45.5793 80.4232C45.3521 80.459 45.197 80.6723 45.2329 80.8995L45.4555 82.3094C45.4913 82.5366 45.7046 82.6917 45.9317 82.6558L53.2539 81.5001C53.4811 81.4642 53.6362 81.251 53.6004 81.0238L53.3778 79.6138C53.3419 79.3866 53.1287 79.2315 52.9015 79.2674Z" fill="white"/>
<path d="M62.5792 77.74L55.2571 78.8958C55.0299 78.9317 54.8748 79.1449 54.9106 79.3721L55.1332 80.7821C55.1691 81.0093 55.3823 81.1644 55.6095 81.1285L62.9317 79.9727C63.1588 79.9368 63.3139 79.7236 63.2781 79.4964L63.0555 78.0865C63.0197 77.8593 62.8064 77.7042 62.5792 77.74Z" fill="white"/>
<path d="M72.8838 76.0243L65.5451 77.2103C65.3174 77.2471 65.1626 77.4616 65.1994 77.6893L65.4278 79.1024C65.4646 79.3301 65.6791 79.4849 65.9068 79.4481L73.2454 78.262C73.4731 78.2252 73.6279 78.0108 73.5911 77.7831L73.3627 76.3699C73.3259 76.1422 73.1115 75.9875 72.8838 76.0243Z" fill="white"/>
<path d="M72.8562 80.5933L63.2248 82.1135C62.9475 82.1573 62.7581 82.4176 62.8019 82.6949L62.9958 83.9233C63.0396 84.2007 63.2999 84.39 63.5772 84.3462L73.2087 82.8259C73.486 82.7822 73.6753 82.5219 73.6315 82.2445L73.4376 81.0161C73.3939 80.7388 73.1336 80.5495 72.8562 80.5933Z" fill="white"/>
<path d="M35.895 72.4834L35.4383 69.5539C35.3895 69.2458 35.4649 68.931 35.648 68.6785C35.8311 68.4259 36.1069 68.2563 36.4149 68.2069L42.1102 67.308C42.4182 67.26 42.7327 67.3362 42.9847 67.5198C43.2367 67.7034 43.4056 67.9794 43.4543 68.2873L43.9167 71.2169C43.9647 71.5252 43.8886 71.8401 43.7051 72.0925C43.5215 72.3449 43.2455 72.5144 42.9373 72.5639L37.2449 73.4628C37.0919 73.4874 36.9356 73.4815 36.7849 73.4456C36.6342 73.4096 36.4921 73.3443 36.3667 73.2533C36.2413 73.1623 36.1351 73.0475 36.0541 72.9154C35.9732 72.7833 35.9191 72.6365 35.895 72.4834ZM36.4694 68.52C36.2446 68.556 36.0432 68.6795 35.9092 68.8636C35.7752 69.0476 35.7195 69.2772 35.7543 69.5022L36.2167 72.4346C36.2548 72.6561 36.3779 72.8539 36.5598 72.9859C36.7417 73.1179 36.9679 73.1736 37.1903 73.1411L42.8828 72.2422C43.1081 72.2062 43.31 72.0822 43.4441 71.8975C43.5782 71.7128 43.6335 71.4825 43.5979 71.2571L43.1355 68.3275C43.0995 68.1028 42.9759 67.9014 42.7919 67.7674C42.6079 67.6334 42.3783 67.5777 42.1533 67.6124L36.4694 68.52Z" fill="white"/>
<path d="M73.8032 61.1991L73.5195 61.2439L74.5092 67.5135L74.7929 67.4688L73.8032 61.1991Z" fill="#4E0EA6"/>
<path d="M53.1768 91.0084L53.1309 90.7212L76.1879 87.0823C76.5516 87.021 76.8764 86.8185 77.0916 86.5189C77.3068 86.2193 77.3949 85.8468 77.3367 85.4825L75.3263 72.7937L75.6135 72.7477L77.6239 85.4394C77.6934 85.8808 77.5848 86.3317 77.322 86.6931C77.0592 87.0544 76.6637 87.2967 76.2224 87.3666L53.1768 91.0084Z" fill="#4E0EA6"/>
<path d="M49.1601 91.3515L40.6211 92.7009L40.6659 92.9846L49.2049 91.6352L49.1601 91.3515Z" fill="#4E0EA6"/>
<path d="M64.9376 58.2064C64.9795 58.2192 65.0182 58.2408 65.0511 58.2698C65.084 58.2988 65.1103 58.3344 65.1282 58.3744C65.1462 58.4144 65.1554 58.4578 65.1552 58.5016C65.155 58.5455 65.1454 58.5887 65.1271 58.6286C64.9835 58.933 64.7509 59.2518 64.5843 59.2604C64.2971 59.2805 64.4407 58.7837 64.5527 58.4132C64.5642 58.3742 64.5833 58.3379 64.609 58.3064C64.6346 58.2748 64.6662 58.2487 64.702 58.2295C64.7378 58.2102 64.7771 58.1983 64.8175 58.1943C64.8579 58.1904 64.8987 58.1945 64.9376 58.2064Z" fill="#FCB47E"/>
<path d="M64.445 58.2064C64.5025 58.2461 64.5453 58.3036 64.5666 58.3701C64.5879 58.4367 64.5866 58.5084 64.5628 58.574C64.4336 58.9129 64.1578 59.3983 63.8821 59.3552C63.7069 59.3294 63.8247 58.8009 63.9395 58.3701C63.9565 58.3215 63.9844 58.2774 64.0212 58.2414C64.058 58.2054 64.1026 58.1784 64.1516 58.1626C64.2006 58.1467 64.2525 58.1424 64.3035 58.15C64.3544 58.1576 64.4028 58.1769 64.445 58.2064Z" fill="#FCB47E"/>
<path d="M63.7135 58.0283C63.7531 58.0362 63.7908 58.0518 63.8243 58.0742C63.8579 58.0967 63.8867 58.1256 63.9091 58.1592C63.9315 58.1928 63.9471 58.2305 63.9549 58.2701C63.9627 58.3098 63.9627 58.3505 63.9547 58.3902C63.8829 58.7463 63.702 59.2173 63.3315 59.3494C63.0127 59.4643 63.1936 58.709 63.3085 58.2465C63.3283 58.169 63.3773 58.102 63.4453 58.0597C63.5132 58.0175 63.5949 58.0031 63.6733 58.0197L63.7135 58.0283Z" fill="#FCB47E"/>
<path d="M63.1231 57.632C63.1814 57.6441 63.236 57.6695 63.2829 57.7061C63.3298 57.7427 63.3676 57.7897 63.3934 57.8432C63.4192 57.8968 63.4324 57.9556 63.4318 58.0151C63.4313 58.0746 63.417 58.1332 63.3902 58.1863C63.2466 58.5482 62.9996 58.9589 62.7728 59.0163C62.5459 59.0738 62.6636 58.4677 62.7412 58.0025C62.7785 57.7928 62.9393 57.5975 63.1231 57.632Z" fill="#FCB47E"/>
<path d="M32.1434 74.0344C32.1434 74.0344 27.3872 67.0668 34.7512 62.0981L38.9703 50.2335V50.1646C34.0303 50.1387 28.7199 53.1602 25.8449 57.3965C21.037 64.4819 21.5196 72.9516 29.5786 77.3201L32.1434 74.0344Z" fill="white"/>
<path d="M34.5603 63.5858L34.3047 63.5341L35.0227 59.8837L35.2783 59.9354L34.5603 63.5858Z" fill="#4E0EA6"/>
<path d="M31.3317 77.4263C27.8622 75.5422 25.5876 72.7822 24.7834 69.4391C23.8557 65.625 24.8408 61.3197 27.5607 57.316L27.7732 57.4625C25.0993 61.403 24.1257 65.6365 25.0361 69.3759C25.8317 72.6472 28.0518 75.3498 31.4552 77.1966L31.3317 77.4263Z" fill="#4E0EA6"/>
<path d="M31.7044 74.6088C31.9457 74.8012 32.701 75.4503 33.0055 75.502C33.3099 75.5537 34.8493 75.614 34.8034 75.9443C34.7574 76.2746 33.6948 76.0218 33.7034 76.3004C33.7034 76.4728 35.7885 77.0328 35.5788 77.3976C35.441 77.636 34.229 77.1247 34.206 77.2741C34.183 77.4234 35.8086 77.7307 35.6219 78.0955C35.4352 78.4602 33.8642 77.5211 33.7838 77.6963C33.7436 77.7853 35.642 78.4689 35.4841 78.7618C35.2715 79.1524 33.8125 78.1874 33.7005 78.3597C33.6459 78.443 34.2203 78.69 34.5449 78.8824C34.7258 78.9887 34.6684 79.1524 34.5248 79.1438C33.06 79.0806 31.219 77.2942 30.9835 77.2109C30.6331 77.0874 30.2942 76.9553 29.9668 76.8203L31.7044 74.6088Z" fill="#FCB47E"/>
<path d="M31.7416 65.3521L31.5176 65.22C32.3132 63.919 33.3933 62.8153 34.6769 61.9918L34.8205 62.2072C33.57 63.0096 32.5174 64.0848 31.7416 65.3521Z" fill="#4E0EA6"/>
<path d="M186.833 50.8137V51.1009C187.192 63.3129 185.937 72.8339 183.817 80.2524L177.522 84.1671L182.691 83.3658L182.838 83.3428C180.049 91.5224 176.172 96.7755 172.498 100.165C170.622 101.92 168.505 103.399 166.211 104.556L165.858 104.728C165.571 104.866 165.284 104.992 165.02 105.107L161.556 105.288C161.51 105.127 161.464 104.967 161.421 104.806C161.392 104.705 161.363 104.605 161.34 104.501C161.317 104.398 161.266 104.234 161.231 104.102C157.141 88.3373 162.297 75.7605 169.035 66.7939C169.055 66.7627 169.077 66.7329 169.101 66.7049C171.284 63.8266 173.719 61.1479 176.376 58.7004L177.895 62.5978L178.116 57.1408C180.764 54.8262 183.609 52.7484 186.62 50.9314L186.833 50.8137Z" fill="#DAC0FF"/>
<path d="M186.956 50.8711L186.841 51.1124L179.729 65.9983L179.603 66.2626L177.664 70.3208L177.598 70.4558L171.418 83.3974L171.409 83.4146L161.34 104.501L161.187 104.817L160.946 105.32L160.645 105.334L160.88 104.835L161.233 104.102L171.171 83.2911L171.357 82.9062L186.631 50.9286L186.714 50.7534L186.956 50.8711Z" fill="white"/>
<path d="M186.373 64.3464L177.559 70.4092L177.69 70.6009L186.505 64.5381L186.373 64.3464Z" fill="white"/>
<path d="M186.429 61.3868L179.52 66.1393L179.651 66.331L186.561 61.5785L186.429 61.3868Z" fill="white"/>
<path d="M169.254 66.6735L169.023 66.7034L171.193 83.431L171.424 83.4011L169.254 66.6735Z" fill="white"/>
<path d="M160.164 107.991C160.164 107.991 168.37 111.868 180.045 104.909L176.259 103.111L182.437 103.358C186.995 100.17 191.995 95.3164 197.188 88.0013L195.752 87.3177L197.625 87.3924C198.501 86.1402 199.382 84.8181 200.267 83.4261C197.488 83.2574 194.7 83.3449 191.938 83.6874L189.422 87.0937L190.137 83.9344C180.102 85.4509 165.512 90.701 160.164 107.991Z" fill="#DAC0FF"/>
<path d="M198.876 83.9821L158.316 107.563L158.447 107.788L199.007 84.2068L198.876 83.9821Z" fill="white"/>
<path d="M189.685 89.6081L189.66 89.851L195.488 90.4522L195.513 90.2094L189.685 89.6081Z" fill="white"/>
<path d="M186.875 91.1659L186.832 91.4062L193.629 92.6171L193.672 92.3767L186.875 91.1659Z" fill="white"/>
<path d="M169.758 93.0245L169.551 92.7947C172.969 89.759 177.13 87.3895 181.918 85.7553L182.018 86.0425C177.268 87.6681 173.144 90.0146 169.758 93.0245Z" fill="#4E0EA6"/>
<path d="M88.2129 73.5835L88.256 73.8707C89.9419 85.9736 92.768 95.1499 96.0996 102.109L102.958 104.918L97.7195 104.993H97.5701C101.7 112.56 106.41 117.107 110.592 119.835C112.734 121.253 115.068 122.358 117.522 123.115L117.899 123.224C118.209 123.313 118.508 123.391 118.792 123.46L122.238 123.058C122.258 122.891 122.276 122.728 122.29 122.561C122.29 122.458 122.313 122.351 122.322 122.248C122.33 122.145 122.348 121.961 122.359 121.837C123.761 105.607 116.575 94.07 108.435 86.3556C108.41 86.3286 108.384 86.3036 108.355 86.2809C105.722 83.8065 102.874 81.5709 99.8448 79.6005L98.9832 83.6989L97.8544 78.354C94.8573 76.5136 91.704 74.9403 88.4312 73.6524L88.2129 73.5835Z" fill="#DAC0FF"/>
<path d="M88.1035 73.661L88.2557 73.8793L97.7508 87.3694L97.9231 87.6078L100.511 91.2869L100.597 91.4076L108.854 103.134L108.866 103.149L122.319 122.259L122.52 122.547L122.841 123L123.14 122.966L122.824 122.509L122.356 121.849L109.078 102.991L108.834 102.64L88.4309 73.6639L88.3189 73.5059L88.1035 73.661Z" fill="white"/>
<path d="M90.9202 86.8244L90.8223 87.0355L100.526 91.5399L100.624 91.3289L90.9202 86.8244Z" fill="white"/>
<path d="M90.3714 83.9307L90.2734 84.1417L97.8803 87.6727L97.9783 87.4617L90.3714 83.9307Z" fill="white"/>
<path d="M108.432 86.2839L108.199 86.2929L108.856 103.148L109.088 103.139L108.432 86.2839Z" fill="white"/>
<path d="M124.059 125.505C124.059 125.505 116.615 130.698 103.955 125.792L107.401 123.388L101.35 124.666C96.3236 122.285 90.5824 118.33 84.2408 111.989L85.5505 111.073L83.6894 111.449C82.6171 110.363 81.5286 109.207 80.4238 107.979C83.1355 107.349 85.8997 106.97 88.6811 106.848L91.7312 109.786L90.4991 106.785C100.635 106.612 115.897 109.352 124.059 125.505Z" fill="#DAC0FF"/>
<path d="M80.4712 107.859L80.3789 108.104L124.5 124.767L124.592 124.522L80.4712 107.859Z" fill="white"/>
<path d="M91.892 112.298L86.2461 113.864L86.3113 114.099L91.9573 112.533L91.892 112.298Z" fill="white"/>
<path d="M95.0859 112.882L88.5957 115.23L88.6787 115.459L95.1689 113.112L95.0859 112.882Z" fill="white"/>
<path d="M112.1 112.351L112.264 112.089C108.387 109.665 103.889 108.025 98.8945 107.207L98.8457 107.511C103.794 108.321 108.26 109.947 112.1 112.351Z" fill="#4E0EA6"/>
<path d="M125.693 133.03H117.39C116.098 133.037 114.853 132.545 113.914 131.657C112.975 130.769 112.416 129.553 112.352 128.262L107.671 46.5429C107.648 45.8692 107.762 45.1978 108.005 44.5692C108.248 43.9405 108.616 43.3675 109.086 42.8846C109.556 42.4017 110.119 42.0189 110.741 41.7591C111.363 41.4994 112.032 41.3681 112.706 41.3731H122.281L125.693 133.03Z" fill="#4E0EA6"/>
<path d="M166.707 46.5429L164.255 128.262C164.192 129.551 163.634 130.767 162.697 131.655C161.76 132.543 160.516 133.036 159.226 133.03H122.503C119.801 133.03 116.615 130.924 116.503 128.262L114.054 46.5429C114.031 45.869 114.145 45.1976 114.389 44.569C114.632 43.9403 115 43.3673 115.471 42.8845C115.941 42.4016 116.504 42.0188 117.127 41.7591C117.749 41.4994 118.417 41.3681 119.091 41.3731H161.673C162.347 41.3681 163.015 41.4994 163.637 41.7591C164.259 42.0189 164.822 42.4017 165.292 42.8846C165.762 43.3675 166.13 43.9405 166.373 44.5692C166.617 45.1978 166.73 45.8692 166.707 46.5429Z" fill="#F3EEFB"/>
<path d="M124.185 47.0053H122.218C122.089 47.0046 121.961 47.0296 121.843 47.0789C121.724 47.1283 121.616 47.2009 121.525 47.2925C121.387 47.4295 121.293 47.6046 121.254 47.7955C121.215 47.9864 121.234 48.1845 121.308 48.3645C121.383 48.5446 121.509 48.6986 121.671 48.8069C121.832 48.9151 122.023 48.9728 122.218 48.9726H158.265C158.525 48.9719 158.775 48.8682 158.959 48.6841C159.143 48.5001 159.247 48.2507 159.247 47.9904C159.247 47.7296 159.144 47.4795 158.96 47.2948C158.776 47.1101 158.526 47.006 158.265 47.0053H124.185Z" fill="#4E0EA6"/>
<path d="M157.86 79.1725H122.898C122.577 79.172 122.269 79.0474 122.037 78.8247C121.806 78.602 121.67 78.2985 121.657 77.9777L120.796 55.2309C120.79 55.064 120.817 54.8976 120.877 54.7415C120.936 54.5855 121.027 54.4431 121.142 54.3227C121.258 54.2024 121.397 54.1066 121.551 54.0411C121.704 53.9755 121.869 53.9416 122.037 53.9413H158.73C158.897 53.9416 159.062 53.9755 159.216 54.0411C159.37 54.1066 159.509 54.2024 159.624 54.3227C159.74 54.4431 159.83 54.5855 159.89 54.7415C159.95 54.8976 159.977 55.064 159.971 55.2309L159.109 77.9777C159.097 78.3 158.959 78.6048 158.726 78.8277C158.493 79.0506 158.182 79.1743 157.86 79.1725Z" fill="white"/>
<path d="M131.612 88.6389H126.207C125.257 88.6389 124.486 89.4091 124.486 90.3592V92.8177C124.486 93.7679 125.257 94.5381 126.207 94.5381H131.612C132.562 94.5381 133.332 93.7679 133.332 92.8177V90.3592C133.332 89.4091 132.562 88.6389 131.612 88.6389Z" fill="#6200EA"/>
<path d="M131.612 98.2632H126.207C125.257 98.2632 124.486 99.0334 124.486 99.9836V102.442C124.486 103.392 125.257 104.162 126.207 104.162H131.612C132.562 104.162 133.332 103.392 133.332 102.442V99.9836C133.332 99.0334 132.562 98.2632 131.612 98.2632Z" fill="#6200EA"/>
<path d="M131.612 107.888H126.207C125.257 107.888 124.486 108.658 124.486 109.608V112.066C124.486 113.017 125.257 113.787 126.207 113.787H131.612C132.562 113.787 133.332 113.017 133.332 112.066V109.608C133.332 108.658 132.562 107.888 131.612 107.888Z" fill="#6200EA"/>
<path d="M131.612 117.515H126.207C125.257 117.515 124.486 118.285 124.486 119.235V121.694C124.486 122.644 125.257 123.414 126.207 123.414H131.612C132.562 123.414 133.332 122.644 133.332 121.694V119.235C133.332 118.285 132.562 117.515 131.612 117.515Z" fill="#4E0EA6"/>
<path d="M142.842 88.6389H137.437C136.487 88.6389 135.717 89.4091 135.717 90.3592V92.8177C135.717 93.7679 136.487 94.5381 137.437 94.5381H142.842C143.793 94.5381 144.563 93.7679 144.563 92.8177V90.3592C144.563 89.4091 143.793 88.6389 142.842 88.6389Z" fill="#6200EA"/>
<path d="M142.842 98.2632H137.437C136.487 98.2632 135.717 99.0334 135.717 99.9836V102.442C135.717 103.392 136.487 104.162 137.437 104.162H142.842C143.793 104.162 144.563 103.392 144.563 102.442V99.9836C144.563 99.0334 143.793 98.2632 142.842 98.2632Z" fill="#6200EA"/>
<path d="M142.842 107.888H137.437C136.487 107.888 135.717 108.658 135.717 109.608V112.066C135.717 113.017 136.487 113.787 137.437 113.787H142.842C143.793 113.787 144.563 113.017 144.563 112.066V109.608C144.563 108.658 143.793 107.888 142.842 107.888Z" fill="#6200EA"/>
<path d="M142.842 117.515H137.437C136.487 117.515 135.717 118.285 135.717 119.235V121.694C135.717 122.644 136.487 123.414 137.437 123.414H142.842C143.793 123.414 144.563 122.644 144.563 121.694V119.235C144.563 118.285 143.793 117.515 142.842 117.515Z" fill="#6200EA"/>
<path d="M154.073 88.6389H148.668C147.718 88.6389 146.947 89.4091 146.947 90.3592V92.8177C146.947 93.7679 147.718 94.5381 148.668 94.5381H154.073C155.023 94.5381 155.793 93.7679 155.793 92.8177V90.3592C155.793 89.4091 155.023 88.6389 154.073 88.6389Z" fill="#6200EA"/>
<path d="M154.073 98.2632H148.668C147.718 98.2632 146.947 99.0334 146.947 99.9836V102.442C146.947 103.392 147.718 104.162 148.668 104.162H154.073C155.023 104.162 155.793 103.392 155.793 102.442V99.9836C155.793 99.0334 155.023 98.2632 154.073 98.2632Z" fill="#6200EA"/>
<path d="M154.073 107.888H148.668C147.718 107.888 146.947 108.658 146.947 109.608V112.066C146.947 113.017 147.718 113.787 148.668 113.787H154.073C155.023 113.787 155.793 113.017 155.793 112.066V109.608C155.793 108.658 155.023 107.888 154.073 107.888Z" fill="#6200EA"/>
<path d="M154.073 117.515H148.668C147.718 117.515 146.947 118.285 146.947 119.235V121.694C146.947 122.644 147.718 123.414 148.668 123.414H154.073C155.023 123.414 155.793 122.644 155.793 121.694V119.235C155.793 118.285 155.023 117.515 154.073 117.515Z" fill="#4E0EA6"/>
<path d="M133.217 88.6389H127.812C126.862 88.6389 126.092 89.4091 126.092 90.3592V92.8177C126.092 93.7679 126.862 94.5381 127.812 94.5381H133.217C134.168 94.5381 134.938 93.7679 134.938 92.8177V90.3592C134.938 89.4091 134.168 88.6389 133.217 88.6389Z" fill="#A066F2"/>
<path d="M133.217 98.2632H127.812C126.862 98.2632 126.092 99.0334 126.092 99.9836V102.442C126.092 103.392 126.862 104.162 127.812 104.162H133.217C134.168 104.162 134.938 103.392 134.938 102.442V99.9836C134.938 99.0334 134.168 98.2632 133.217 98.2632Z" fill="#A066F2"/>
<path d="M133.217 107.888H127.812C126.862 107.888 126.092 108.658 126.092 109.608V112.066C126.092 113.017 126.862 113.787 127.812 113.787H133.217C134.168 113.787 134.938 113.017 134.938 112.066V109.608C134.938 108.658 134.168 107.888 133.217 107.888Z" fill="#A066F2"/>
<path d="M133.217 117.515H127.812C126.862 117.515 126.092 118.285 126.092 119.235V121.694C126.092 122.644 126.862 123.414 127.812 123.414H133.217C134.168 123.414 134.938 122.644 134.938 121.694V119.235C134.938 118.285 134.168 117.515 133.217 117.515Z" fill="#4E0EA6"/>
<path d="M144.446 88.6389H139.041C138.091 88.6389 137.32 89.4091 137.32 90.3592V92.8177C137.32 93.7679 138.091 94.5381 139.041 94.5381H144.446C145.396 94.5381 146.166 93.7679 146.166 92.8177V90.3592C146.166 89.4091 145.396 88.6389 144.446 88.6389Z" fill="#A066F2"/>
<path d="M144.446 98.2632H139.041C138.091 98.2632 137.32 99.0334 137.32 99.9836V102.442C137.32 103.392 138.091 104.162 139.041 104.162H144.446C145.396 104.162 146.166 103.392 146.166 102.442V99.9836C146.166 99.0334 145.396 98.2632 144.446 98.2632Z" fill="#A066F2"/>
<path d="M144.446 107.888H139.041C138.091 107.888 137.32 108.658 137.32 109.608V112.066C137.32 113.017 138.091 113.787 139.041 113.787H144.446C145.396 113.787 146.166 113.017 146.166 112.066V109.608C146.166 108.658 145.396 107.888 144.446 107.888Z" fill="#A066F2"/>
<path d="M144.446 117.515H139.041C138.091 117.515 137.32 118.285 137.32 119.235V121.694C137.32 122.644 138.091 123.414 139.041 123.414H144.446C145.396 123.414 146.166 122.644 146.166 121.694V119.235C146.166 118.285 145.396 117.515 144.446 117.515Z" fill="#A066F2"/>
<path d="M155.676 88.6389H150.271C149.321 88.6389 148.551 89.4091 148.551 90.3592V92.8177C148.551 93.7679 149.321 94.5381 150.271 94.5381H155.676C156.626 94.5381 157.397 93.7679 157.397 92.8177V90.3592C157.397 89.4091 156.626 88.6389 155.676 88.6389Z" fill="#A066F2"/>
<path d="M155.676 98.2632H150.271C149.321 98.2632 148.551 99.0334 148.551 99.9836V102.442C148.551 103.392 149.321 104.162 150.271 104.162H155.676C156.626 104.162 157.397 103.392 157.397 102.442V99.9836C157.397 99.0334 156.626 98.2632 155.676 98.2632Z" fill="#A066F2"/>
<path d="M155.676 107.888H150.271C149.321 107.888 148.551 108.658 148.551 109.608V112.066C148.551 113.017 149.321 113.787 150.271 113.787H155.676C156.626 113.787 157.397 113.017 157.397 112.066V109.608C157.397 108.658 156.626 107.888 155.676 107.888Z" fill="#A066F2"/>
<path d="M155.676 117.515H150.271C149.321 117.515 148.551 118.285 148.551 119.235V121.694C148.551 122.644 149.321 123.414 150.271 123.414H155.676C156.626 123.414 157.397 122.644 157.397 121.694V119.235C157.397 118.285 156.626 117.515 155.676 117.515Z" fill="#4E0EA6"/>
<path d="M133.218 94.6961H127.813C127.314 94.6961 126.835 94.4979 126.483 94.1451C126.13 93.7923 125.932 93.3138 125.932 92.8149V90.3736C125.932 90.1266 125.98 89.882 126.075 89.6537C126.169 89.4255 126.308 89.2181 126.483 89.0434C126.657 88.8687 126.865 88.7302 127.093 88.6356C127.321 88.5411 127.566 88.4924 127.813 88.4924H133.218C133.717 88.4932 134.195 88.6916 134.547 89.0443C134.9 89.3969 135.099 89.8749 135.099 90.3736V92.8293C135.096 93.3257 134.896 93.8005 134.543 94.1502C134.191 94.4999 133.715 94.6961 133.218 94.6961ZM127.813 88.7997C127.399 88.7997 127.002 88.964 126.709 89.2563C126.416 89.5487 126.251 89.9454 126.25 90.3593V92.8149C126.251 93.2291 126.416 93.626 126.709 93.9189C127.002 94.2117 127.399 94.3766 127.813 94.3773H133.218C133.632 94.3766 134.029 94.2116 134.321 93.9187C134.613 93.6258 134.778 93.2288 134.778 92.8149V90.3736C134.777 89.9603 134.612 89.564 134.32 89.2717C134.028 88.9794 133.631 88.8149 133.218 88.8141L127.813 88.7997Z" fill="white"/>
<path d="M133.218 104.323H127.813C127.314 104.323 126.835 104.125 126.483 103.772C126.13 103.42 125.932 102.941 125.932 102.442V99.9836C125.932 99.4847 126.13 99.0062 126.483 98.6534C126.835 98.3006 127.314 98.1024 127.813 98.1024H133.218C133.717 98.1032 134.195 98.3016 134.547 98.6542C134.9 99.0069 135.099 99.4849 135.099 99.9836V102.436C135.1 102.684 135.051 102.929 134.957 103.158C134.863 103.386 134.724 103.594 134.549 103.769C134.375 103.945 134.167 104.084 133.939 104.179C133.71 104.274 133.465 104.323 133.218 104.323ZM127.813 98.4155C127.399 98.4155 127.002 98.5797 126.709 98.8721C126.416 99.1645 126.251 99.5611 126.25 99.975V102.436C126.251 102.85 126.416 103.247 126.709 103.539C127.002 103.832 127.399 103.996 127.813 103.996H133.218C133.631 103.995 134.028 103.831 134.32 103.538C134.612 103.246 134.777 102.85 134.778 102.436V99.9779C134.777 99.5645 134.612 99.1683 134.32 98.876C134.028 98.5837 133.631 98.4191 133.218 98.4183L127.813 98.4155Z" fill="white"/>
<path d="M133.218 113.948H127.813C127.314 113.948 126.835 113.749 126.483 113.397C126.13 113.044 125.932 112.565 125.932 112.066V109.617C125.932 109.37 125.98 109.125 126.075 108.897C126.169 108.669 126.308 108.462 126.483 108.287C126.658 108.113 126.865 107.975 127.093 107.88C127.321 107.786 127.566 107.738 127.813 107.738H133.218C133.717 107.738 134.195 107.936 134.547 108.288C134.9 108.64 135.099 109.118 135.099 109.617V112.075C135.096 112.572 134.897 113.048 134.544 113.399C134.192 113.75 133.715 113.947 133.218 113.948ZM127.813 108.048C127.399 108.048 127.002 108.213 126.709 108.505C126.416 108.797 126.251 109.194 126.25 109.608V112.066C126.251 112.48 126.416 112.877 126.709 113.169C127.002 113.462 127.399 113.626 127.813 113.626H133.218C133.631 113.625 134.028 113.461 134.32 113.168C134.612 112.876 134.777 112.48 134.778 112.066V109.617C134.777 109.203 134.612 108.807 134.32 108.515C134.028 108.222 133.631 108.058 133.218 108.057L127.813 108.048Z" fill="white"/>
<path d="M133.218 123.572H127.813C127.566 123.572 127.321 123.523 127.093 123.429C126.865 123.334 126.657 123.196 126.483 123.021C126.308 122.846 126.169 122.639 126.075 122.411C125.98 122.182 125.932 121.938 125.932 121.691V119.235C125.932 118.736 126.13 118.258 126.483 117.905C126.835 117.552 127.314 117.354 127.813 117.354H133.218C133.717 117.355 134.195 117.553 134.547 117.906C134.9 118.258 135.099 118.736 135.099 119.235V121.679C135.1 121.927 135.053 122.173 134.959 122.402C134.865 122.632 134.726 122.84 134.552 123.016C134.377 123.192 134.169 123.331 133.94 123.427C133.711 123.522 133.466 123.572 133.218 123.572ZM127.813 117.676C127.399 117.676 127.002 117.84 126.709 118.132C126.416 118.425 126.251 118.821 126.25 119.235V121.679C126.251 122.093 126.416 122.49 126.709 122.782C127.002 123.075 127.399 123.239 127.813 123.239H133.218C133.631 123.238 134.028 123.073 134.32 122.781C134.612 122.489 134.777 122.093 134.778 121.679V119.224C134.777 118.81 134.612 118.414 134.32 118.122C134.028 117.829 133.631 117.665 133.218 117.664L127.813 117.676Z" fill="white"/>
<path d="M144.449 94.6961H139.04C138.794 94.6961 138.549 94.6474 138.321 94.5529C138.093 94.4583 137.886 94.3197 137.711 94.145C137.537 93.9702 137.398 93.7628 137.304 93.5346C137.21 93.3064 137.162 93.0618 137.162 92.8149V90.3736C137.162 89.8752 137.36 89.3971 137.712 89.0444C138.064 88.6917 138.542 88.4932 139.04 88.4924H144.449C144.947 88.4932 145.425 88.6916 145.778 89.0443C146.131 89.3969 146.329 89.8749 146.33 90.3736V92.8293C146.326 93.3257 146.126 93.8005 145.774 94.1502C145.421 94.4999 144.945 94.6961 144.449 94.6961ZM139.04 88.7997C138.627 88.8005 138.231 88.9651 137.939 89.2574C137.646 89.5497 137.482 89.9459 137.481 90.3593V92.8149C137.481 93.2288 137.645 93.6258 137.938 93.9187C138.23 94.2116 138.627 94.3766 139.04 94.3773H144.449C144.654 94.3777 144.857 94.3376 145.047 94.2592C145.237 94.1809 145.41 94.0658 145.555 93.9207C145.701 93.7756 145.816 93.6032 145.895 93.4135C145.973 93.2237 146.014 93.0203 146.014 92.8149V90.3736C146.013 89.9603 145.849 89.564 145.556 89.2717C145.264 88.9794 144.868 88.8149 144.454 88.8141L139.04 88.7997Z" fill="white"/>
<path d="M144.449 104.323H139.04C138.542 104.323 138.064 104.124 137.712 103.771C137.36 103.419 137.162 102.941 137.162 102.442V99.9836C137.162 99.4852 137.36 99.0071 137.712 98.6544C138.064 98.3017 138.542 98.1032 139.04 98.1024H144.449C144.947 98.1032 145.425 98.3016 145.778 98.6542C146.131 99.0069 146.329 99.4849 146.33 99.9836V102.436C146.33 102.684 146.282 102.929 146.187 103.158C146.093 103.386 145.955 103.594 145.78 103.769C145.605 103.945 145.398 104.084 145.169 104.179C144.941 104.274 144.696 104.323 144.449 104.323ZM139.04 98.4155C138.627 98.4162 138.231 98.5808 137.939 98.8731C137.646 99.1654 137.482 99.5616 137.481 99.975V102.436C137.482 102.85 137.646 103.246 137.939 103.538C138.231 103.831 138.627 103.995 139.04 103.996H144.449C144.654 103.996 144.857 103.956 145.047 103.878C145.236 103.8 145.409 103.685 145.554 103.54C145.7 103.395 145.815 103.223 145.894 103.034C145.973 102.845 146.013 102.642 146.014 102.436V99.9779C146.013 99.5645 145.849 99.1683 145.556 98.876C145.264 98.5837 144.868 98.4191 144.454 98.4183L139.04 98.4155Z" fill="white"/>
<path d="M144.449 113.948H139.04C138.542 113.947 138.064 113.748 137.712 113.396C137.36 113.043 137.162 112.565 137.162 112.066V109.617C137.162 109.118 137.36 108.641 137.712 108.288C138.065 107.936 138.542 107.738 139.04 107.738H144.449C144.947 107.738 145.425 107.936 145.778 108.288C146.13 108.64 146.329 109.118 146.33 109.617V112.075C146.327 112.572 146.127 113.048 145.775 113.399C145.423 113.75 144.946 113.947 144.449 113.948ZM139.04 108.048C138.627 108.049 138.231 108.214 137.939 108.506C137.646 108.798 137.482 109.195 137.481 109.608V112.066C137.482 112.48 137.646 112.876 137.939 113.168C138.231 113.461 138.627 113.625 139.04 113.626H144.449C144.862 113.625 145.258 113.461 145.55 113.168C145.843 112.876 146.007 112.48 146.008 112.066V109.617C146.007 109.203 145.843 108.807 145.55 108.515C145.258 108.222 144.862 108.058 144.449 108.057L139.04 108.048Z" fill="white"/>
<path d="M144.449 123.572H139.04C138.542 123.571 138.064 123.373 137.712 123.02C137.36 122.667 137.162 122.189 137.162 121.691V119.235C137.162 118.737 137.36 118.259 137.712 117.906C138.064 117.553 138.542 117.355 139.04 117.354H144.449C144.947 117.355 145.425 117.553 145.778 117.906C146.131 118.258 146.329 118.736 146.33 119.235V121.679C146.331 121.927 146.283 122.173 146.189 122.402C146.095 122.632 145.957 122.84 145.782 123.016C145.607 123.192 145.4 123.331 145.171 123.427C144.942 123.522 144.696 123.572 144.449 123.572ZM139.04 117.676C138.627 117.676 138.231 117.841 137.939 118.133C137.646 118.425 137.482 118.822 137.481 119.235V121.679C137.482 122.093 137.646 122.489 137.939 122.781C138.231 123.073 138.627 123.238 139.04 123.239H144.449C144.654 123.239 144.857 123.199 145.047 123.121C145.236 123.043 145.409 122.928 145.554 122.783C145.7 122.638 145.815 122.466 145.894 122.277C145.973 122.088 146.013 121.884 146.014 121.679V119.224C146.013 118.81 145.849 118.414 145.556 118.122C145.264 117.829 144.868 117.665 144.454 117.664L139.04 117.676Z" fill="white"/>
<path d="M155.678 94.6961H150.27C149.771 94.6961 149.292 94.4979 148.94 94.1451C148.587 93.7923 148.389 93.3138 148.389 92.8149V90.3736C148.389 89.8749 148.588 89.3969 148.94 89.0443C149.293 88.6916 149.771 88.4932 150.27 88.4924H155.678C156.176 88.4932 156.654 88.6917 157.006 89.0444C157.359 89.3971 157.556 89.8752 157.556 90.3736V92.8293C157.553 93.3254 157.354 93.8003 157.002 94.15C156.65 94.4998 156.174 94.6961 155.678 94.6961ZM150.27 88.7997C149.856 88.8005 149.46 88.9651 149.168 89.2574C148.876 89.5497 148.711 89.9459 148.71 90.3593V92.8149C148.71 93.2288 148.875 93.6258 149.167 93.9187C149.459 94.2116 149.856 94.3766 150.27 94.3773H155.678C156.092 94.3766 156.489 94.2116 156.781 93.9187C157.073 93.6258 157.238 93.2288 157.238 92.8149V90.3736C157.237 89.9603 157.072 89.564 156.78 89.2717C156.488 88.9794 156.091 88.8149 155.678 88.8141L150.27 88.7997Z" fill="white"/>
<path d="M155.678 104.323H150.27C149.771 104.323 149.293 104.124 148.94 103.771C148.588 103.419 148.389 102.941 148.389 102.442V99.9836C148.389 99.4849 148.588 99.0069 148.94 98.6542C149.293 98.3016 149.771 98.1032 150.27 98.1024H155.678C156.176 98.1032 156.654 98.3017 157.006 98.6544C157.359 99.0071 157.556 99.4852 157.556 99.9836V102.436C157.557 102.684 157.509 102.929 157.415 103.157C157.321 103.386 157.183 103.594 157.008 103.769C156.834 103.945 156.627 104.084 156.398 104.179C156.17 104.274 155.925 104.323 155.678 104.323ZM150.27 98.4155C149.856 98.4162 149.46 98.5808 149.168 98.8731C148.876 99.1654 148.711 99.5616 148.71 99.975V102.436C148.711 102.85 148.876 103.246 149.168 103.538C149.46 103.831 149.856 103.995 150.27 103.996H155.678C156.091 103.995 156.488 103.831 156.78 103.538C157.072 103.246 157.237 102.85 157.238 102.436V99.9779C157.237 99.5645 157.072 99.1683 156.78 98.876C156.488 98.5837 156.091 98.4191 155.678 98.4183L150.27 98.4155Z" fill="white"/>
<path d="M155.678 113.948H150.27C149.771 113.947 149.293 113.748 148.94 113.396C148.588 113.043 148.389 112.565 148.389 112.066V109.617C148.389 109.118 148.588 108.64 148.941 108.288C149.293 107.936 149.771 107.738 150.27 107.738H155.678C156.176 107.738 156.654 107.936 157.006 108.288C157.358 108.641 157.556 109.118 157.556 109.617V112.075C157.554 112.572 157.355 113.048 157.003 113.399C156.651 113.749 156.175 113.947 155.678 113.948ZM150.27 108.048C149.856 108.049 149.46 108.214 149.168 108.506C148.876 108.798 148.711 109.195 148.71 109.608V112.066C148.711 112.48 148.876 112.876 149.168 113.168C149.46 113.461 149.856 113.625 150.27 113.626H155.678C156.091 113.625 156.488 113.461 156.78 113.168C157.072 112.876 157.237 112.48 157.238 112.066V109.617C157.237 109.203 157.072 108.807 156.78 108.515C156.488 108.222 156.091 108.058 155.678 108.057L150.27 108.048Z" fill="white"/>
<path d="M155.678 123.572H150.27C149.771 123.571 149.293 123.373 148.94 123.02C148.588 122.667 148.389 122.189 148.389 121.691V119.235C148.389 118.736 148.588 118.258 148.94 117.906C149.293 117.553 149.771 117.355 150.27 117.354H155.678C156.176 117.355 156.654 117.553 157.006 117.906C157.359 118.259 157.556 118.737 157.556 119.235V121.679C157.558 121.927 157.51 122.173 157.417 122.402C157.323 122.631 157.185 122.84 157.01 123.016C156.836 123.192 156.628 123.331 156.4 123.427C156.171 123.522 155.926 123.572 155.678 123.572ZM150.27 117.676C149.856 117.676 149.46 117.841 149.168 118.133C148.876 118.425 148.711 118.822 148.71 119.235V121.679C148.711 122.093 148.876 122.489 149.168 122.781C149.46 123.073 149.856 123.238 150.27 123.239H155.678C156.091 123.238 156.488 123.073 156.78 122.781C157.072 122.489 157.237 122.093 157.238 121.679V119.224C157.237 118.81 157.072 118.414 156.78 118.122C156.488 117.829 156.091 117.665 155.678 117.664L150.27 117.676Z" fill="white"/>
<path d="M154.759 133.245H122.503C119.726 133.245 116.406 131.071 116.288 128.271L113.847 46.5515C113.817 45.857 113.928 45.1636 114.175 44.5138C114.422 43.8639 114.799 43.2712 115.283 42.7718C115.775 42.2563 116.368 41.8467 117.024 41.5682C117.68 41.2897 118.387 41.148 119.1 41.152H161.672C162.385 41.148 163.092 41.2897 163.748 41.5682C164.404 41.8467 164.997 42.2563 165.489 42.7718C165.973 43.2715 166.35 43.8647 166.597 44.5151C166.844 45.1655 166.956 45.8594 166.925 46.5544L166.79 51.0262H166.36L166.492 46.563C166.52 45.9263 166.419 45.2904 166.193 44.6943C165.967 44.0983 165.622 43.5545 165.179 43.0964C164.726 42.6233 164.182 42.2474 163.579 41.9916C162.976 41.7358 162.327 41.6055 161.672 41.6087H119.091C118.436 41.6052 117.787 41.7353 117.184 41.9911C116.581 42.2469 116.037 42.623 115.584 43.0964C115.141 43.554 114.796 44.0971 114.569 44.6927C114.343 45.2882 114.241 45.9237 114.269 46.5601L116.719 128.253C116.828 130.821 119.918 132.814 122.503 132.814H154.759V133.245Z" fill="#4E0EA6"/>
<path d="M165.963 63.5379L164.545 111.052L164.976 111.065L166.394 63.5507L165.963 63.5379Z" fill="#4E0EA6"/>
<path d="M156.287 31.2979V48.9812H124.232V31.2979C124.153 30.1139 123.623 29.0054 122.75 28.2018C121.874 27.3877 120.723 26.9352 119.527 26.9352H151.585C152.781 26.9347 153.933 27.3872 154.808 28.2018C155.681 29.005 156.211 30.1139 156.287 31.2979Z" fill="white"/>
<path d="M124.231 31.2979H114.828C114.904 30.1132 115.435 29.0037 116.31 28.2018C117.185 27.3881 118.336 26.9357 119.531 26.9357C120.726 26.9357 121.877 27.3881 122.752 28.2018C123.624 29.006 124.154 30.1144 124.231 31.2979Z" fill="#4E0EA6"/>
<path d="M156.431 49.1249H124.088V31.2979C124.011 30.1532 123.497 29.082 122.652 28.3052C121.802 27.517 120.686 27.079 119.527 27.0789V26.7917H151.585C152.821 26.7874 154.012 27.2536 154.917 28.0956C155.817 28.9249 156.363 30.0684 156.442 31.2893V49.1249H156.431ZM124.375 48.8377H156.143V31.3008C156.066 30.1552 155.552 29.0829 154.707 28.3052C153.858 27.517 152.742 27.079 151.583 27.0789H121.182C121.801 27.3009 122.369 27.6469 122.85 28.0956C123.75 28.9249 124.296 30.0684 124.375 31.2893V48.8377Z" fill="#4E0EA6"/>
<path d="M158.265 49.1278H122.223C122 49.1281 121.782 49.0622 121.597 48.9383C121.411 48.8145 121.266 48.6383 121.181 48.4321C121.096 48.2259 121.074 47.999 121.118 47.7803C121.162 47.5615 121.27 47.3608 121.428 47.2035C121.532 47.098 121.655 47.0144 121.792 46.9577C121.929 46.9009 122.075 46.8722 122.223 46.8732H124.185V47.1604H122.218C122.108 47.1593 121.999 47.1803 121.897 47.2222C121.795 47.2642 121.703 47.3262 121.626 47.4045C121.469 47.5641 121.381 47.7783 121.379 48.0019C121.379 48.2243 121.467 48.4377 121.625 48.5949C121.782 48.7522 121.995 48.8406 122.218 48.8406H158.265C158.487 48.8391 158.699 48.7502 158.856 48.5933C159.013 48.4363 159.102 48.2239 159.104 48.0019C159.104 47.7792 159.015 47.5656 158.858 47.4079C158.701 47.2502 158.488 47.1612 158.265 47.1604H156.298V46.8732H158.265C158.564 46.874 158.85 46.9932 159.061 47.2048C159.272 47.4164 159.391 47.7031 159.391 48.0019C159.39 48.3003 159.271 48.5862 159.06 48.7972C158.849 49.0082 158.563 49.127 158.265 49.1278Z" fill="#4E0EA6"/>
<path d="M159.633 134.273C159.633 135.066 165.466 135.709 172.663 135.709C179.861 135.709 185.694 135.06 185.694 134.273C185.695 134.259 185.695 134.245 185.694 134.23V130.336H159.641V134.222C159.636 134.238 159.633 134.256 159.633 134.273Z" fill="#FFEA8A"/>
<path d="M172.663 131.812C179.86 131.812 185.694 131.166 185.694 130.37C185.694 129.574 179.86 128.928 172.663 128.928C165.467 128.928 159.633 129.574 159.633 130.37C159.633 131.166 165.467 131.812 172.663 131.812Z" fill="#FCC659"/>
<path d="M156.551 129.575C156.551 130.367 162.387 131.011 169.584 131.011C176.782 131.011 182.615 130.364 182.615 129.575C182.616 129.56 182.616 129.546 182.615 129.532V125.634H156.562V129.52C156.556 129.538 156.552 129.556 156.551 129.575Z" fill="#FFEA8A"/>
<path d="M169.585 127.113C176.782 127.113 182.616 126.468 182.616 125.671C182.616 124.875 176.782 124.23 169.585 124.23C162.389 124.23 156.555 124.875 156.555 125.671C156.555 126.468 162.389 127.113 169.585 127.113Z" fill="#FCC659"/>
<path d="M159.633 124.873C159.633 125.669 165.466 126.309 172.663 126.309C179.861 126.309 185.694 125.663 185.694 124.873C185.695 124.859 185.695 124.844 185.694 124.83V120.935H159.641V124.821C159.636 124.838 159.633 124.855 159.633 124.873Z" fill="#FFEA8A"/>
<path d="M172.663 122.415C179.86 122.415 185.694 121.769 185.694 120.973C185.694 120.176 179.86 119.531 172.663 119.531C165.467 119.531 159.633 120.176 159.633 120.973C159.633 121.769 165.467 122.415 172.663 122.415Z" fill="#FCC659"/>
<path d="M172.661 135.867C177.963 135.867 185.847 135.442 185.847 134.273H185.54C185.54 134.721 181.117 135.56 172.661 135.56H171.748V135.87L172.661 135.867Z" fill="#4E0EA6"/>
<path d="M167.493 135.752L167.507 135.445C166.189 135.382 164.98 135.296 163.912 135.187L163.883 135.494C164.968 135.6 166.169 135.686 167.493 135.752Z" fill="#4E0EA6"/>
<path d="M177.805 130.821C182.687 130.376 182.687 129.758 182.687 129.555H182.38C182.38 129.704 181.55 130.169 177.762 130.514L177.805 130.821Z" fill="#4E0EA6"/>
<path d="M169.516 131.157C170.98 131.157 172.419 131.128 173.792 131.077V130.769C171.339 130.864 168.622 130.873 166.104 130.798V131.105C167.204 131.134 168.358 131.157 169.516 131.157Z" fill="#4E0EA6"/>
<path d="M162.849 130.947L162.869 130.64C161.479 130.548 160.267 130.43 159.268 130.29L159.225 130.583C160.233 130.735 161.453 130.87 162.849 130.947Z" fill="#4E0EA6"/>
<path d="M181.422 122.199C185.768 121.757 185.768 121.197 185.768 120.987H185.457C185.457 120.987 185.348 121.49 181.391 121.892L181.422 122.199Z" fill="#4E0EA6"/>
<path d="M172.583 122.581C174.08 122.581 175.547 122.552 176.937 122.498V122.19C175.55 122.245 174.088 122.274 172.595 122.274C169.921 122.274 167.353 122.185 165.168 122.015L165.145 122.323C167.324 122.492 169.901 122.581 172.583 122.581Z" fill="#4E0EA6"/>
<path d="M155.012 120.174C155.012 120.97 160.848 121.61 168.045 121.61C175.243 121.61 181.076 120.964 181.076 120.174C181.077 120.16 181.077 120.146 181.076 120.131V116.237H155.023V120.123C155.015 120.139 155.011 120.156 155.012 120.174Z" fill="#FFEA8A"/>
<path d="M168.044 117.713C175.241 117.713 181.075 117.067 181.075 116.271C181.075 115.475 175.241 114.829 168.044 114.829C160.848 114.829 155.014 115.475 155.014 116.271C155.014 117.067 160.848 117.713 168.044 117.713Z" fill="#FCC659"/>
<path d="M157.43 116.271C157.43 116.808 162.183 117.242 168.056 117.242C173.93 117.242 178.669 116.808 178.669 116.271C178.669 115.734 173.918 115.303 168.056 115.303C162.194 115.303 157.43 115.737 157.43 116.271Z" fill="#FFEA8A"/>
<path d="M152.861 34.707H145.896V35.5686H152.861V34.707Z" fill="#4E0EA6"/>
<path d="M142.671 34.707H128.664V35.5686H142.671V34.707Z" fill="#4E0EA6"/>
<path d="M152.861 38.4408H136.729V39.3024H152.861V38.4408Z" fill="#4E0EA6"/>
<path d="M134.75 38.4408H128.664V39.3024H134.75V38.4408Z" fill="#4E0EA6"/>
<path d="M149.856 42.4617H143.256V43.3233H149.856V42.4617Z" fill="#4E0EA6"/>
<path d="M140.471 42.4617H128.664V43.3233H140.471V42.4617Z" fill="#4E0EA6"/>
<path d="M139.976 78.9629H131.242V79.3937H139.976V78.9629Z" fill="#4E0EA6"/>
<path d="M157.862 79.3936H143.369V78.9628H157.862C158.128 78.9637 158.384 78.8612 158.576 78.6768C158.767 78.4925 158.88 78.2407 158.89 77.9748L159.648 58.0656L160.079 58.0828L159.321 77.9892C159.307 78.3666 159.147 78.7238 158.875 78.9858C158.602 79.2477 158.239 79.3939 157.862 79.3936Z" fill="#4E0EA6"/>
<path d="M77.0833 49.0158C75.3703 48.6752 73.5947 48.8501 71.9811 49.5185C70.3675 50.1869 68.9883 51.3188 68.0179 52.7709C67.0475 54.2231 66.5295 55.9304 66.5293 57.677C66.5291 59.4235 67.0468 61.1309 68.0169 62.5833C68.9871 64.0357 70.366 65.1678 71.9795 65.8365C73.593 66.5052 75.3685 66.6805 77.0816 66.3402C78.7947 65.9999 80.3684 65.1593 81.6038 63.9247C82.8392 62.6901 83.6808 61.1169 84.0222 59.4041C84.249 58.2663 84.2493 57.095 84.0233 55.9572C83.7973 54.8193 83.3493 53.7371 82.7049 52.7724C82.0605 51.8077 81.2324 50.9794 80.2678 50.3348C79.3032 49.6902 78.2211 49.242 77.0833 49.0158ZM82.3306 59.068C82.0577 60.4393 81.3866 61.6997 80.4013 62.6916C79.4159 63.6836 78.1601 64.3631 76.7906 64.6451C75.4212 64.9272 73.9991 64.7993 72.7019 64.2775C71.4048 63.7556 70.2903 62.863 69.4977 61.7112C68.7052 60.5594 68.2697 59.1995 68.2458 57.8015C68.222 56.4036 68.6107 55.0296 69.3635 53.8514C70.1162 52.6732 71.1996 51.743 72.4782 51.1772C73.7567 50.6113 75.1737 50.435 76.5519 50.6701C76.618 50.6701 76.6812 50.6931 76.7472 50.7046C78.5625 51.0684 80.1645 52.1252 81.2133 53.6507C82.2622 55.1763 82.6753 57.0505 82.365 58.8756C82.3478 58.9244 82.3363 58.9876 82.3219 59.068H82.3306Z" fill="#FCC659"/>
<path d="M82.3604 58.8612C82.3604 58.9244 82.3374 58.9876 82.3231 59.0537C82.0492 60.4238 81.3777 61.6828 80.3924 62.6734C79.4071 63.664 78.1517 64.3423 76.7831 64.6235C75.4145 64.9047 73.9934 64.7763 72.6973 64.2544C71.4013 63.7326 70.2878 62.8403 69.4959 61.6891C68.7041 60.538 68.269 59.179 68.2452 57.782C68.2213 56.385 68.6097 55.012 69.3617 53.8344C70.1138 52.6569 71.1962 51.7271 72.4737 51.1613C73.7511 50.5954 75.167 50.4186 76.5445 50.6528L76.7398 50.6902C78.5551 51.054 80.1574 52.1107 81.2067 53.6361C82.256 55.1616 82.6699 57.0358 82.3604 58.8612Z" fill="#FFEA8A"/>
<path d="M73.9889 62.9453L74.2129 61.627C73.507 61.5049 72.8493 61.1875 72.3145 60.7108L72.7769 59.8894C73.2741 60.3494 73.8933 60.6566 74.5604 60.774C75.4881 60.932 76.2061 60.5041 76.3354 59.7602C76.4646 59.0163 76.0252 58.5108 75.1262 57.9536C73.8826 57.204 73.1617 56.463 73.357 55.3257C73.5437 54.2429 74.4541 53.5536 75.6891 53.5622L75.9132 52.244L76.7231 52.3818L76.5077 53.6484C77.1014 53.7559 77.6579 54.0129 78.1247 54.3951L77.6565 55.2022C77.2104 54.8206 76.6679 54.5692 76.0884 54.4756C75.0831 54.3032 74.6006 54.8403 74.5116 55.363C74.3967 56.0408 74.8218 56.463 75.8758 57.1265C77.1281 57.9048 77.691 58.7004 77.4899 59.8636C77.3147 60.8946 76.4301 61.739 75.0487 61.7304L74.816 63.086L73.9889 62.9453Z" fill="#FCC659"/>
<path d="M82.3726 57.0576C82.3726 56.9972 82.3726 56.9369 82.3525 56.8766C82.2417 55.8815 81.9193 54.9215 81.4071 54.0611C80.895 53.2007 80.2048 52.4597 79.3828 51.8878L79.492 51.7299C80.3352 52.3168 81.0435 53.077 81.5695 53.9596C82.0955 54.8422 82.4271 55.8269 82.5421 56.8479C82.5421 56.9197 82.5565 56.9829 82.5622 57.0432L82.3726 57.0576Z" fill="#4E0EA6"/>
<path d="M79.3812 51.8878C78.0388 50.9567 76.4137 50.523 74.7858 50.6614L74.7715 50.469C76.4422 50.3283 78.1098 50.7741 79.4874 51.7298L79.3812 51.8878Z" fill="#4E0EA6"/>
<path d="M80.8906 62.2991L80.7441 62.1756C81.3399 61.4723 81.7908 60.6583 82.071 59.7803L82.2548 59.8377C81.9669 60.7401 81.5033 61.5766 80.8906 62.2991Z" fill="#4E0EA6"/>
<path d="M82.1237 52.1578C81.552 51.4544 80.8736 50.8448 80.1133 50.3512L80.2425 50.1646C81.0174 50.6727 81.7092 51.2976 82.2932 52.017L82.1237 52.1578Z" fill="#4E0EA6"/>
<path d="M79.0139 65.8145L78.9277 65.6278C81.0038 64.694 82.6333 62.9866 83.4691 60.8692C84.3049 58.7518 84.281 56.3918 83.4024 54.2917L83.5949 54.2113C84.4938 56.361 84.518 58.7766 83.6624 60.9438C82.8067 63.1111 81.1388 64.8587 79.0139 65.8145Z" fill="#4E0EA6"/>
<path d="M140.006 74.6264C144.531 74.4462 148.053 70.6319 147.873 66.1068C147.693 61.5818 143.878 58.0596 139.353 58.2398C134.828 58.4199 131.306 62.2342 131.486 66.7593C131.667 71.2843 135.481 74.8065 140.006 74.6264Z" fill="#A066F2"/>
<path d="M139.376 70.608L135.613 66.7393L136.027 66.3372L139.215 69.6171L143.316 61.1158L143.833 61.3657L139.376 70.608Z" fill="white"/>
<path d="M69.6152 52.8442C70.3853 53.2373 70.999 53.8804 71.3557 54.668C71.7141 53.8792 72.3284 53.2345 73.0991 52.8385C72.3282 52.4455 71.7135 51.8025 71.3557 51.0147C70.9984 51.8033 70.3851 52.448 69.6152 52.8442Z" fill="#FFE6A6"/>
<path d="M76.6934 64.0798C77.1407 64.3096 77.4971 64.6842 77.7043 65.1425C77.9106 64.6836 78.2672 64.3087 78.7153 64.0798C78.2672 63.8509 77.9106 63.4761 77.7043 63.0172C77.4978 63.4759 77.1413 63.8507 76.6934 64.0798Z" fill="#FFE6A6"/>
</svg>
